<svg xmlns="http://www.w3.org/2000/svg" xmlns:xlink="http://www.w3.org/1999/xlink" viewBox="0 0 810 810" preserveAspectRatio="xMidYMid meet" version="1.0"><defs><clipPath id="67621386ef"><path d="M 234.308594 139 L 718.058594 139 L 718.058594 636.910156 L 234.308594 636.910156 Z M 234.308594 139 " clip-rule="nonzero"/></clipPath></defs><path fill="#273418" d="M 635.355469 489.957031 C 633.675781 517.085938 626.171875 543.28125 612.296875 566.703125 C 585.980469 611.144531 540.710938 644.625 491.734375 660.058594 C 463.210938 669.046875 433.054688 671.0625 403.394531 668.015625 C 376 665.203125 348.839844 658.78125 323.261719 648.53125 C 274.886719 629.148438 232.257812 595.347656 208.320312 548.386719 C 196.644531 525.472656 189.867188 500.210938 189.460938 474.453125 C 189.007812 445.804688 196.003906 417.484375 206.585938 391.027344 C 209.738281 383.144531 213.148438 375.28125 216.855469 367.546875 C 226.808594 341.417969 242.292969 317.339844 261.839844 297.449219 C 296.511719 262.148438 343.144531 242.164062 392.300781 238.675781 C 442.527344 235.113281 494.042969 248.480469 535.882812 276.570312 C 557.191406 290.867188 576.054688 308.65625 591.328125 329.285156 C 607.566406 351.210938 618.753906 376.191406 625.671875 402.527344 C 633.097656 430.789062 637.164062 460.722656 635.355469 489.957031 " fill-opacity="1" fill-rule="nonzero"/><g clip-path="url(#67621386ef)"><path fill="#faead3" d="M 705.175781 358.316406 C 701.570312 356.710938 698.167969 355.855469 694.191406 355.632812 C 690.464844 355.425781 686.621094 356.023438 683.015625 356.921875 C 682.140625 357.140625 681.320312 357.511719 680.566406 358 C 664.722656 367.277344 648.984375 376.738281 633.21875 386.152344 C 617.367188 395.621094 601.480469 405.039062 585.425781 414.164062 C 580.871094 416.753906 576.300781 419.320312 571.714844 421.855469 C 568.257812 423.769531 565.53125 426.09375 563.96875 429.792969 C 563.328125 431.320312 563.070312 432.75 563.027344 434.1875 C 556.289062 438.898438 549.550781 443.609375 542.8125 448.316406 C 542.714844 448.386719 542.613281 448.457031 542.511719 448.527344 C 526.445312 443.300781 509.96875 439.378906 493.304688 436.601562 C 492.917969 436.539062 492.535156 436.480469 492.152344 436.417969 C 493.089844 436.167969 494.167969 435.890625 495.417969 435.585938 C 495.417969 435.585938 495.96875 435.121094 498.738281 434.824219 C 505.097656 434.140625 511.496094 434.359375 517.824219 433.199219 C 521.191406 432.582031 524.707031 431.390625 527.535156 429.429688 C 531.347656 426.785156 534.046875 423.316406 536.710938 419.550781 C 538.984375 416.34375 541.039062 412.984375 543.367188 409.820312 C 543.707031 409.402344 544.054688 408.988281 544.410156 408.585938 C 547 405.636719 548.109375 401.066406 545.835938 397.539062 C 543.550781 393.992188 539.652344 392.46875 535.546875 393.347656 C 535.253906 393.410156 534.964844 393.464844 534.671875 393.515625 C 528.011719 394.128906 521.082031 393.117188 514.4375 394.039062 C 515.386719 393.460938 516.132812 392.683594 516.855469 391.886719 C 522.285156 385.90625 525.605469 380.054688 526.261719 378.9375 C 527.824219 376.277344 529.097656 373.519531 530.28125 370.671875 C 531.148438 368.589844 531.863281 366.457031 532.183594 364.21875 C 532.183594 364.214844 532.183594 364.210938 532.1875 364.210938 C 532.398438 363.433594 532.507812 362.628906 532.511719 361.792969 C 533.242188 355.898438 532.125 349.84375 530.558594 344.164062 C 529.285156 339.542969 527.730469 334.992188 526.929688 330.257812 C 526.839844 329.304688 526.78125 328.347656 526.761719 327.386719 C 526.75 326.644531 526.644531 325.921875 526.464844 325.226562 C 529.105469 324.75 531.820312 323.117188 533.605469 321.171875 C 536.117188 318.433594 537.277344 315.253906 537.65625 311.617188 C 538.242188 306.015625 535.308594 300.382812 530.652344 297.347656 C 527.191406 295.085938 522.921875 294.628906 518.996094 295.605469 C 520.613281 293.75 521.730469 291.457031 522.074219 288.875 C 522.824219 283.308594 520.132812 278.425781 515.625 275.28125 C 515.503906 275.195312 515.378906 275.113281 515.253906 275.035156 C 515.457031 274.90625 515.652344 274.769531 515.851562 274.632812 C 516.390625 274.289062 516.90625 273.882812 517.386719 273.410156 C 517.738281 273.101562 518.054688 272.757812 518.332031 272.386719 C 522.09375 267.925781 522.6875 261.867188 520.039062 256.589844 C 517.664062 251.863281 512.714844 249.015625 507.570312 248.625 C 503.171875 248.292969 499.289062 250.480469 496.636719 253.734375 C 494.824219 250.015625 492.261719 246.8125 489.175781 244.113281 C 489.1875 243.925781 489.195312 243.734375 489.195312 243.542969 C 489.199219 241.621094 488.605469 239.917969 487.757812 238.226562 C 486.945312 236.613281 485.6875 235.195312 484.507812 233.84375 C 482.894531 231.992188 481.128906 230.398438 479.226562 228.898438 C 479.804688 228.964844 480.394531 228.992188 480.984375 228.976562 C 481.183594 228.976562 481.382812 228.96875 481.582031 228.949219 C 482.355469 228.890625 483.105469 228.777344 483.828125 228.597656 C 486.585938 228.042969 489.042969 227.007812 491.226562 224.933594 C 493.078125 223.171875 494.566406 220.613281 495.160156 218.121094 C 496.234375 213.585938 495.335938 207.386719 491.136719 203.230469 C 486.042969 198.191406 477.230469 197.128906 471.589844 200.988281 C 472.011719 200.527344 472.417969 200.054688 472.800781 199.566406 C 476.496094 194.867188 479.289062 189.464844 480.273438 183.511719 C 481.28125 177.414062 481.246094 171.078125 479.105469 165.195312 C 478.023438 162.230469 476.710938 159.347656 474.828125 156.804688 C 472.417969 153.539062 469.90625 151.03125 466.625 148.636719 C 461.480469 144.878906 455.09375 143.121094 448.820312 142.625 C 442.078125 142.097656 434.898438 143.769531 429.054688 147.175781 C 422.402344 151.054688 417.617188 157.269531 415.3125 164.585938 C 414.667969 166.636719 414.96875 169.015625 415.949219 171.042969 C 414.269531 171.96875 412.628906 172.96875 411.03125 174.046875 C 411.113281 173.660156 411.1875 173.273438 411.246094 172.886719 C 411.625 170.382812 411.898438 167.988281 411.601562 165.472656 C 411.203125 162.066406 410.457031 159.328125 409.089844 156.1875 C 406.886719 151.128906 402.792969 146.964844 398.304688 143.871094 C 390.070312 138.1875 378.691406 137.695312 369.566406 141.382812 C 364.4375 143.453125 359.882812 146.210938 355.84375 150.039062 C 352.152344 153.539062 349.023438 157.914062 346.746094 162.457031 C 342.03125 171.855469 340.0625 182.519531 341.128906 192.988281 C 342.023438 201.765625 344.398438 210.246094 348.210938 218.152344 C 344.152344 218.699219 340.386719 221.132812 338.050781 224.578125 C 335.261719 228.691406 335.027344 234.21875 336.921875 238.707031 C 337.046875 239.003906 337.183594 239.292969 337.324219 239.582031 C 328.542969 241.691406 320.441406 246.136719 314.472656 253.339844 C 312.722656 255.453125 311.15625 257.691406 309.789062 260.035156 C 308.082031 258.25 305.914062 256.902344 303.429688 256.246094 C 293.148438 253.53125 284.359375 264.496094 286.828125 274.160156 C 287.875 278.253906 290.707031 281.136719 294.261719 282.699219 C 289.019531 282.71875 283.867188 285.273438 281.265625 290.046875 C 278.554688 295.023438 278.574219 300.957031 281.21875 305.949219 C 284.558594 312.261719 292.054688 314.460938 298.652344 312.882812 C 298.976562 312.820312 299.300781 312.734375 299.621094 312.625 C 299.96875 312.523438 300.308594 312.394531 300.644531 312.246094 C 301.054688 312.082031 301.460938 311.902344 301.855469 311.710938 C 299.316406 314.382812 296.5 316.789062 293.976562 319.476562 C 290.320312 323.367188 286.644531 328.09375 285.644531 333.480469 C 285.558594 333.953125 285.492188 334.421875 285.449219 334.886719 C 284.734375 340.519531 285.140625 346.179688 287.269531 351.527344 C 289.523438 357.179688 292.710938 362.355469 297.238281 366.488281 C 300.128906 369.128906 304.796875 370.160156 308.277344 367.914062 C 308.679688 367.652344 309.058594 367.371094 309.417969 367.066406 C 309.703125 368.808594 310.582031 373.039062 313.609375 377.308594 C 312.664062 376.648438 308.15625 373.90625 300.582031 375.730469 C 300.050781 375.859375 299.550781 376.023438 299.550781 376.023438 C 298.839844 376.257812 298.15625 376.554688 297.515625 376.917969 C 296.550781 377.398438 295.664062 377.96875 294.804688 378.820312 C 293.625 379.988281 292.941406 381.1875 292.320312 382.660156 C 291.195312 385.328125 291.058594 388.085938 291.675781 390.914062 C 292.296875 393.75 293.859375 396.113281 295.960938 397.84375 C 295.789062 397.871094 295.621094 397.898438 295.449219 397.921875 C 293.730469 398.113281 292.003906 398.210938 290.277344 398.125 C 288.257812 397.648438 286.355469 396.804688 284.351562 396.253906 C 280.804688 395.277344 276.988281 396.648438 274.773438 399.519531 C 272.441406 402.539062 272.398438 406.28125 274.0625 409.640625 C 276.882812 415.347656 280.605469 420.824219 285.136719 425.304688 C 287.625 427.765625 290.484375 430.0625 293.578125 431.714844 C 297.125 433.613281 300.617188 434.625 304.523438 435.113281 C 304.832031 435.160156 305.148438 435.195312 305.472656 435.222656 C 311 435.683594 316.496094 434.753906 322.003906 434.390625 C 325.980469 434.128906 327.972656 434.054688 329.800781 434.460938 C 331.640625 434.871094 333.144531 435.515625 334.363281 436.113281 C 326.226562 437.285156 318.128906 438.71875 310.097656 440.515625 C 300.976562 442.558594 291.917969 445.058594 283.125 448.242188 C 274.242188 451.457031 265.378906 455.261719 257.488281 460.515625 C 249.757812 465.660156 242.246094 472.308594 238.222656 480.863281 C 235.886719 485.832031 234.507812 490.902344 234.328125 496.417969 C 234.152344 501.738281 235.195312 507.261719 236.667969 512.359375 C 239.773438 523.089844 245.316406 533.097656 251.875 542.082031 C 258.996094 551.832031 267.125 560.761719 276.050781 568.878906 C 284.203125 576.296875 292.953125 583.171875 302.175781 589.21875 C 307.28125 592.566406 312.742188 595.316406 318.0625 598.308594 C 315.167969 599.078125 312.332031 600.101562 309.671875 601.464844 C 304.621094 604.046875 300.585938 609.53125 302.230469 615.453125 C 303.914062 621.5 309.480469 624.300781 314.933594 626.273438 C 323.5625 629.402344 332.832031 631.058594 341.878906 632.414062 C 352.882812 634.0625 363.957031 635.148438 375.0625 635.8125 C 395.183594 637.019531 415.386719 637.050781 435.523438 636.289062 C 445.722656 635.902344 455.914062 635.238281 466.066406 634.203125 C 477.386719 633.046875 488.765625 631.574219 499.847656 628.953125 C 504.589844 627.832031 509.292969 626.519531 513.757812 624.550781 C 516.703125 623.253906 519.363281 621.097656 520.957031 618.265625 C 523.015625 614.609375 522.925781 610.050781 520.730469 606.492188 C 518.015625 602.082031 512.75 600.0625 508.003906 598.71875 C 507.484375 598.574219 506.960938 598.4375 506.4375 598.304688 C 523.90625 588.257812 540.679688 576.648438 554.933594 562.394531 C 563.351562 553.976562 570.957031 544.484375 576.828125 534.105469 C 579.96875 528.550781 582.578125 522.683594 584.746094 516.6875 C 586.828125 510.9375 588.335938 505.085938 588.847656 498.972656 C 589.40625 492.316406 587.914062 485.875 585.152344 479.851562 C 583.804688 476.90625 581.980469 474.285156 580.03125 471.726562 C 580.71875 471.175781 581.402344 470.625 582.074219 470.097656 C 582.65625 469.65625 583.246094 469.226562 583.855469 468.832031 C 585.902344 469.277344 587.921875 469.804688 590.039062 470.027344 C 593.851562 470.425781 597.429688 469.335938 600.46875 467.203125 C 603.515625 465.179688 606.566406 463.160156 609.613281 461.136719 C 617.113281 456.164062 624.613281 451.191406 632.109375 446.222656 C 641.183594 440.203125 650.257812 434.1875 659.332031 428.171875 C 667.175781 422.972656 675.019531 417.769531 682.867188 412.566406 C 686.363281 410.246094 689.964844 408.027344 693.40625 405.617188 C 704.292969 403.707031 714.664062 396.152344 717.371094 385.039062 C 719.910156 374.613281 715.296875 362.820312 705.175781 358.316406 Z M 705.175781 358.316406 " fill-opacity="1" fill-rule="nonzero"/></g><path fill="#780a11" d="M 349.035156 227.265625 C 355.378906 226.265625 357.570312 236.570312 351.617188 237.878906 C 343.132812 239.746094 342.855469 228.242188 349.035156 227.265625 Z M 349.035156 227.265625 " fill-opacity="1" fill-rule="nonzero"/><path fill="#2a0a17" d="M 413.203125 336.820312 C 414.996094 324.5 421.226562 311.847656 431.996094 305.179688 C 432.617188 304.800781 433.566406 303.359375 434.242188 304.523438 C 423.875 314.691406 421.972656 329.835938 421.242188 343.695312 C 420.597656 355.878906 421.105469 367.589844 419.648438 379.90625 C 418.058594 393.3125 414.984375 406.679688 411.042969 419.546875 C 424.8125 402.261719 435.675781 376.859375 427.71875 354.96875 C 428.792969 353.886719 432.183594 359.757812 432.65625 360.546875 C 439.519531 372.019531 442.976562 385.09375 439.527344 398.34375 C 435.078125 415.425781 418.300781 428.371094 405.960938 439.859375 C 452.609375 438.835938 499.710938 443.527344 543.960938 458.601562 L 571.773438 439.160156 C 573.605469 436.921875 569.894531 434.339844 574.285156 430.847656 C 611.917969 410.125 648.367188 387.402344 685.4375 365.714844 C 714.15625 358.421875 717.847656 393.234375 689.875 397.003906 L 595.648438 459.476562 C 591.707031 463.203125 585.117188 458.84375 582.039062 459.59375 C 578.332031 460.492188 570.828125 468.574219 566.261719 469.632812 C 565.796875 471.472656 567.628906 471.21875 568.816406 472.484375 C 582.175781 486.703125 582.113281 497.824219 575.5 515.519531 C 561.820312 552.132812 526.40625 577.265625 493.359375 595.164062 L 491.542969 604.59375 C 495.445312 605.519531 512.929688 607.601562 513.34375 612.253906 C 513.65625 615.734375 507.34375 617.382812 504.761719 618.183594 C 486.078125 623.96875 456.585938 626.335938 436.816406 627.121094 C 403.707031 628.441406 350.082031 628.023438 318.921875 618.019531 C 298.246094 611.378906 323.601562 605.355469 331.972656 605.316406 C 330.855469 602.527344 331.023438 597.304688 329.667969 594.933594 C 328.8125 593.433594 312.625 585.050781 309.550781 583.128906 C 283.523438 566.835938 246.808594 532.699219 243.574219 500.375 C 240.660156 471.277344 280.304688 457.683594 302.804688 451.683594 C 332.738281 443.703125 364.453125 441.621094 395.320312 439.898438 C 406.625 421.949219 401.128906 397.304688 393.242188 378.933594 C 384.875 359.449219 367.476562 338.859375 343.949219 341.179688 C 323.59375 343.191406 314.988281 369.089844 337.011719 376.410156 L 343.574219 377.449219 C 323.808594 383.59375 311.90625 363.285156 318.789062 345.761719 C 329.292969 319.019531 361.382812 323.015625 380.496094 337.984375 C 396.863281 350.796875 399.558594 363.082031 405.859375 381.546875 C 406.183594 382.496094 406.066406 383.761719 407.402344 383.988281 C 405.53125 352.195312 405.523438 316.226562 387.839844 288.546875 C 379.378906 275.300781 364.316406 261.28125 347.195312 266.054688 C 337.421875 268.777344 325.035156 280.558594 331.359375 291.355469 C 335.570312 298.554688 346.5625 299.488281 349.753906 291.117188 L 351.1875 285.300781 C 359.46875 299.84375 343.421875 309.707031 329.769531 306.011719 C 313.804688 301.691406 309.519531 283.617188 315.160156 269.5625 C 326.265625 241.910156 361.332031 241.644531 382.03125 258.800781 C 405.675781 278.398438 408.359375 305.898438 411.734375 334.308594 C 411.863281 335.394531 411.875 336.542969 413.203125 336.820312 Z M 413.203125 336.820312 " fill-opacity="1" fill-rule="nonzero"/><path fill="#2a0a17" d="M 379.113281 173.542969 C 380.28125 179.890625 389.09375 178.933594 389.957031 172.402344 C 391.601562 159.976562 377.386719 161.347656 371.261719 170.394531 C 357.171875 191.226562 379.71875 226.828125 387.441406 246.859375 C 388.609375 249.890625 390.3125 252.898438 389.992188 256.265625 L 367.535156 230.492188 C 350.386719 212.132812 342.453125 180.988281 359.234375 159.816406 C 369.121094 147.34375 388.355469 142.625 399.003906 156.914062 C 407.742188 168.644531 399.898438 186.375 384.621094 184.359375 C 379.027344 183.621094 373.59375 178.246094 379.113281 173.542969 Z M 379.113281 173.542969 " fill-opacity="1" fill-rule="nonzero"/><path fill="#2a0a17" d="M 469.066406 418.816406 C 469.367188 417.625 471.183594 417.589844 472.332031 416.652344 C 481.449219 409.214844 487.3125 396.222656 482.480469 384.714844 C 476.5625 370.613281 458.480469 378.953125 465.675781 390.640625 C 468.402344 395.066406 472.71875 393.101562 477.035156 393.054688 C 467.808594 407.324219 450.230469 395.5 450.984375 380.839844 C 452.253906 356.109375 488.96875 354.898438 496.226562 378.21875 C 502.460938 398.257812 488.6875 415.65625 469.066406 418.816406 Z M 469.066406 418.816406 " fill-opacity="1" fill-rule="nonzero"/><path fill="#2a0a17" d="M 465.179688 159.285156 C 480.699219 175.742188 467.210938 206.769531 444.96875 200.1875 C 435.351562 197.339844 428.925781 183.964844 440.042969 178.621094 C 438.339844 190.714844 454.023438 191.359375 457.246094 180.957031 C 463.113281 162.003906 435.742188 156.351562 424.097656 167.011719 C 429.390625 149.773438 453.4375 146.835938 465.179688 159.285156 Z M 465.179688 159.285156 " fill-opacity="1" fill-rule="nonzero"/><path fill="#273418" d="M 479.9375 243.929688 C 472.859375 241.1875 465.210938 237.871094 457.617188 236.871094 C 456.832031 236.765625 455.121094 236.066406 455.285156 237.394531 C 466.621094 243.625 485.023438 246.109375 489.363281 259.898438 C 483.667969 254.988281 476.941406 252.011719 469.414062 251.203125 C 466.410156 250.878906 463.320312 251.421875 460.183594 251.003906 C 442.8125 248.675781 428.667969 228.355469 426.273438 212.007812 L 431 217.792969 C 443.894531 228.554688 461.539062 225.9375 474.484375 236.691406 C 475.390625 237.441406 481.066406 242.835938 479.9375 243.929688 Z M 479.9375 243.929688 " fill-opacity="1" fill-rule="nonzero"/><path fill="#273418" d="M 510.414062 385.441406 C 515.230469 374.382812 518.414062 364.167969 514.75 352.0625 L 513.109375 363.835938 L 510.773438 373.101562 C 505.847656 367.011719 501.453125 357.546875 502.492188 349.578125 C 503.644531 340.691406 512.058594 333.679688 517.652344 327.386719 C 517.789062 339.460938 525.027344 349.546875 523.398438 361.792969 C 522.390625 369.382812 515.390625 379.765625 510.414062 385.441406 Z M 510.414062 385.441406 " fill-opacity="1" fill-rule="nonzero"/><path fill="#273418" d="M 303.679688 360.042969 C 297.179688 354.191406 292.933594 344.769531 294.429688 335.90625 C 295.664062 328.601562 304.863281 322.179688 309.484375 316.859375 L 312.382812 311.425781 C 313.398438 318.949219 315.183594 325.859375 311.949219 333.113281 C 308.492188 340.863281 300.175781 343.382812 301.578125 353.8125 C 301.898438 356.175781 303.351562 357.808594 303.679688 360.042969 Z M 303.679688 360.042969 " fill-opacity="1" fill-rule="nonzero"/><path fill="#dc8a1a" d="M 344.855469 357.308594 C 353.40625 356.824219 356.894531 373.542969 344.714844 371.613281 C 338.492188 370.628906 334.300781 357.910156 344.855469 357.308594 Z M 344.855469 357.308594 " fill-opacity="1" fill-rule="nonzero"/><path fill="#dc8a1a" d="M 292.609375 291.972656 C 300.78125 290.1875 303.8125 301.761719 297.199219 303.835938 C 286.878906 307.078125 285.789062 293.460938 292.609375 291.972656 Z M 292.609375 291.972656 " fill-opacity="1" fill-rule="nonzero"/><path fill="#dc8a1a" d="M 521.8125 304.300781 C 529.933594 303.234375 531.054688 315.554688 523.757812 316.484375 C 515.089844 317.59375 513.710938 305.367188 521.8125 304.300781 Z M 521.8125 304.300781 " fill-opacity="1" fill-rule="nonzero"/><path fill="#d85c0f" d="M 374.566406 376.210938 C 379.789062 381.4375 371.433594 390.417969 366.050781 384.371094 C 360.742188 378.410156 369.566406 371.210938 374.566406 376.210938 Z M 374.566406 376.210938 " fill-opacity="1" fill-rule="nonzero"/><path fill="#dc8a1a" d="M 479.746094 208.5 C 487.714844 206.835938 489.132812 219.113281 481.582031 219.832031 C 474.574219 220.5 473.140625 209.878906 479.746094 208.5 Z M 479.746094 208.5 " fill-opacity="1" fill-rule="nonzero"/><path fill="#d85c0f" d="M 510.945312 266.964844 C 507.339844 270.355469 499.519531 266.273438 503.105469 260.210938 C 507.050781 253.546875 516.515625 261.726562 510.945312 266.964844 Z M 510.945312 266.964844 " fill-opacity="1" fill-rule="nonzero"/><path fill="#d85c0f" d="M 445.648438 415.339844 C 452.808594 413.730469 453.898438 423.324219 448.21875 424.496094 C 442.175781 425.746094 439.710938 416.679688 445.648438 415.339844 Z M 445.648438 415.339844 " fill-opacity="1" fill-rule="nonzero"/><path fill="#d85c0f" d="M 303.5 266.613281 C 305.9375 269.242188 304.664062 274.941406 300.566406 274.929688 C 290.574219 274.902344 297.449219 260.085938 303.5 266.613281 Z M 303.5 266.613281 " fill-opacity="1" fill-rule="nonzero"/><path fill="#780a11" d="M 505.535156 283.148438 C 509.367188 279.511719 516.371094 286.234375 511.535156 290.242188 C 506.785156 294.179688 501.515625 286.964844 505.535156 283.148438 Z M 505.535156 283.148438 " fill-opacity="1" fill-rule="nonzero"/><path fill="#780a11" d="M 301.972656 384.8125 C 308.917969 382.371094 311.070312 392.871094 304.113281 391.941406 C 299.75 391.355469 299.449219 385.703125 301.972656 384.8125 Z M 301.972656 384.8125 " fill-opacity="1" fill-rule="nonzero"/><path fill="#d85c0f" d="M 408.855469 559.605469 C 410.867188 571.140625 424.253906 577.207031 425.546875 588.988281 C 425.824219 591.515625 424.671875 598.238281 424.894531 599.039062 C 425.691406 601.914062 431.339844 600.640625 433.3125 599.671875 C 439.613281 596.578125 439.734375 586.207031 441.539062 580.328125 C 442.070312 578.605469 445.347656 569.050781 448.050781 570.824219 C 450.300781 572.304688 452.152344 578.3125 452.746094 581.371094 C 453.734375 586.441406 454.484375 594.324219 452.265625 604.492188 C 454.332031 604.214844 457.121094 603.609375 460.175781 602.210938 C 464.484375 600.242188 467.390625 597.582031 469.066406 595.78125 C 471.730469 593.058594 472.894531 590.523438 473.46875 588.734375 C 474.832031 584.476562 473.738281 581.667969 475.757812 577.8125 C 476.832031 575.757812 478.277344 574.390625 479.277344 573.585938 C 479.988281 575.285156 480.988281 577.953125 481.738281 581.335938 C 483.101562 587.476562 482.886719 592.546875 482.621094 597.917969 C 482.511719 600.140625 482.28125 603.28125 481.738281 607.054688 C 465.554688 613.199219 451.460938 616.136719 441.132812 617.65625 C 418.886719 620.921875 401.214844 619.25 388.195312 618.378906 C 383.925781 618.09375 358.8125 615.457031 356.820312 613.847656 C 352.742188 606.066406 349.570312 597.582031 349.390625 588.632812 C 359.425781 596.226562 364.863281 607.609375 379.113281 608.949219 C 378.09375 605.882812 375.828125 603.855469 374.734375 600.640625 C 372.277344 593.445312 373.964844 588.691406 377.546875 582.339844 C 378.160156 581.25 381.5 575.40625 382.742188 576.300781 C 384.300781 583.65625 381.371094 588.703125 385.054688 596.121094 C 389.984375 606.035156 404.417969 605.257812 402.976562 591.246094 C 402.0625 582.339844 398.144531 574.265625 403.183594 565.175781 C 403.738281 564.179688 407.78125 558.628906 408.855469 559.605469 Z M 408.855469 559.605469 " fill-opacity="1" fill-rule="nonzero"/><path fill="#780a11" d="M 361.707031 542.910156 L 346.109375 517.519531 C 344.261719 517.378906 345.296875 517.777344 345.578125 518.777344 C 347.804688 526.613281 351.550781 534.9375 354.113281 542.90625 C 354.425781 543.875 354.863281 543.765625 353.371094 543.652344 C 345.507812 543.042969 319.820312 537.828125 313.347656 534.335938 C 297.785156 525.949219 309.523438 503.15625 323.984375 514.25 L 318.199219 520.058594 C 320.035156 520.789062 322.144531 518.183594 324.210938 517.367188 C 326.6875 516.394531 329.441406 516.117188 331.96875 515.328125 C 330.945312 513.769531 329.964844 515.238281 330.855469 512.414062 C 333.285156 504.71875 342.628906 503.695312 347.960938 509.144531 C 350.914062 512.164062 359.3125 534.335938 361.019531 539.617188 C 361.367188 540.699219 361.824219 541.734375 361.707031 542.910156 Z M 361.707031 542.910156 " fill-opacity="1" fill-rule="nonzero"/><path fill="#faead3" d="M 366.0625 551.628906 C 366.230469 552.894531 364.414062 552.3125 363.535156 552.347656 C 351.816406 552.828125 338.292969 551.101562 326.65625 549.324219 C 311.398438 546.996094 296.320312 543.332031 281.929688 537.839844 C 290.648438 551.921875 301.007812 562.792969 314.339844 572.53125 C 315.566406 573.429688 332.074219 583.644531 331.25 584.269531 C 301.039062 573.113281 272.003906 550.382812 258.722656 520.417969 C 290.265625 541.609375 329.101562 546.753906 366.0625 551.628906 Z M 366.0625 551.628906 " fill-opacity="1" fill-rule="nonzero"/><path fill="#d85c0f" d="M 553.207031 520.417969 L 551.015625 510.257812 C 548.019531 513.855469 543.628906 512.234375 540.933594 509.074219 L 546.664062 499.375 C 544.507812 500.265625 539.542969 507.304688 537.9375 507.054688 C 534.363281 505.441406 531.308594 503.132812 528.195312 500.804688 C 523.089844 496.988281 507.71875 485.816406 504.605469 481.589844 C 503.4375 480.003906 502.160156 478.015625 502.535156 475.960938 C 502.703125 475.03125 507.582031 468.191406 508.234375 467.773438 C 509.957031 466.667969 519.226562 472.277344 521.21875 473.675781 C 526.917969 477.667969 548.828125 497.433594 552.480469 502.632812 C 556.128906 507.832031 553.148438 509.3125 554.054688 513.363281 C 554.691406 516.214844 558.585938 517.355469 553.207031 520.417969 Z M 553.207031 520.417969 " fill-opacity="1" fill-rule="nonzero"/><path fill="#780a11" d="M 284.835938 502.277344 C 297.109375 496.871094 299.316406 513.070312 290.265625 519.6875 C 274.941406 530.894531 255.433594 511.679688 268.480469 498.617188 C 272.175781 494.917969 273.878906 494.695312 277.148438 498.714844 C 278.058594 499.835938 280.941406 506.488281 281.832031 503.269531 C 282.636719 500.363281 280.476562 493.03125 277.554688 491.765625 C 276.738281 491.410156 270.890625 491.148438 274.269531 488.476562 C 280.820312 483.304688 286.167969 497.210938 284.835938 502.277344 Z M 284.835938 502.277344 " fill-opacity="1" fill-rule="nonzero"/><path fill="#faead3" d="M 596.71875 437.683594 L 590.152344 431.546875 C 584.613281 429.019531 587.449219 429.675781 590.457031 428.167969 C 618.433594 414.160156 644.324219 396.074219 671.664062 380.960938 C 676.136719 378.488281 683.796875 373.648438 688.308594 372.21875 C 696.117188 369.75 698.746094 377.492188 694.121094 378.816406 C 691.996094 379.425781 685.804688 375.339844 682.390625 378.632812 L 595.96875 433.003906 C 594.925781 434.160156 596.328125 436.234375 596.71875 437.683594 Z M 596.71875 437.683594 " fill-opacity="1" fill-rule="nonzero"/><path fill="#faead3" d="M 405.953125 545.085938 C 404.675781 546.480469 398.351562 538.375 397.6875 537.039062 C 390.503906 522.523438 403.863281 517.136719 407.078125 505.210938 C 409.203125 497.332031 406.945312 489.894531 407.042969 481.960938 L 415.175781 506.476562 C 416.398438 510.742188 416.855469 515.550781 415.054688 519.722656 C 413.664062 522.953125 410.96875 524.519531 409.269531 526.996094 C 405.855469 531.960938 404.40625 539.261719 405.953125 545.085938 Z M 405.953125 545.085938 " fill-opacity="1" fill-rule="nonzero"/><path fill="#780a11" d="M 518.378906 520.414062 C 518.042969 520.730469 514.128906 520.105469 514.035156 521.863281 C 516.914062 521.007812 524.300781 523.292969 526.050781 521.929688 C 526.78125 521.363281 527.0625 519.785156 527.8125 519.335938 C 532.5625 516.484375 535.441406 525.570312 532.058594 530.105469 C 528.933594 534.292969 513.660156 536.667969 508.300781 537.03125 C 506.617188 531.71875 505.132812 513.242188 514.964844 516.203125 C 515.910156 516.484375 519.121094 519.714844 518.378906 520.414062 Z M 518.378906 520.414062 " fill-opacity="1" fill-rule="nonzero"/><path fill="#faead3" d="M 404.507812 480.503906 L 405.960938 488.070312 C 405.800781 492.574219 406.335938 497.109375 405.632812 501.585938 C 403.605469 514.492188 388.609375 519.441406 392.863281 534.605469 C 393.953125 538.488281 397 541.535156 398.703125 545.082031 C 396.625 544.667969 390.84375 545.761719 389.425781 544.9375 C 386.890625 543.464844 384.746094 531.863281 384.890625 528.734375 C 385.5625 514.273438 404.507812 505.761719 404.507812 492.480469 Z M 404.507812 480.503906 " fill-opacity="1" fill-rule="nonzero"/><path fill="#273418" d="M 370.410156 472.523438 C 370.949219 473.121094 372.835938 481.914062 372.980469 483.386719 C 373.144531 485.109375 372.378906 486.75 372.601562 488.484375 C 373.898438 488.226562 373.542969 485.902344 374.214844 484.664062 C 375.1875 482.875 378.039062 478.558594 380.570312 479.414062 C 372.851562 486.074219 373.316406 494.679688 376.167969 503.660156 C 372.507812 504.621094 370.015625 507.734375 366.796875 509.53125 C 366.652344 502.316406 365.3125 494.53125 359.171875 489.941406 C 356.714844 488.101562 353.554688 487.765625 351.558594 485.59375 L 355.910156 485.578125 C 356.085938 485.421875 353.207031 482.398438 354.820312 481.234375 L 363.882812 488.488281 C 363.25 483.730469 360.589844 479.308594 359.371094 474.5 C 359.128906 473.542969 357.996094 473.113281 359.890625 473.253906 L 365.921875 481.011719 L 369.683594 489.210938 C 369.875 484 369.058594 478.796875 368.949219 473.625 C 368.921875 472.429688 369.679688 471.714844 370.410156 472.523438 Z M 370.410156 472.523438 " fill-opacity="1" fill-rule="nonzero"/><path fill="#faead3" d="M 402.328125 480.507812 C 402.296875 484.71875 402.367188 489.75 401.535156 493.859375 C 398.609375 508.324219 378.640625 515.8125 379.902344 531.570312 C 380.25 535.898438 383.035156 541.207031 384.925781 545.082031 C 380.882812 546.394531 378.375 542.285156 376.816406 539.050781 C 371.3125 527.648438 376.964844 516.726562 384.890625 508.410156 C 395.730469 497.03125 398.292969 499.167969 400.898438 481.597656 C 401.085938 480.332031 400.515625 480.375 402.328125 480.507812 Z M 402.328125 480.507812 " fill-opacity="1" fill-rule="nonzero"/><path fill="#faead3" d="M 416.113281 497.195312 C 418.84375 502.40625 425.722656 512.835938 426.265625 517.875 C 427.578125 530.003906 419.882812 533.402344 413.210938 541.097656 C 412.011719 542.480469 411.828125 545.265625 409.589844 545.085938 C 410.074219 542.222656 408.742188 539.496094 408.796875 536.75 C 408.957031 528.78125 419.320312 524.074219 419.773438 515.675781 C 420.050781 510.515625 414.210938 497.535156 412.488281 491.390625 C 412.996094 491.238281 413.414062 491.148438 413.511719 491.289062 C 414.566406 492.785156 415.601562 495.496094 416.113281 497.195312 Z M 416.113281 497.195312 " fill-opacity="1" fill-rule="nonzero"/><path fill="#faead3" d="M 424.816406 503 C 433.414062 513.535156 440.777344 524.5625 431.21875 537.347656 C 427.1875 542.742188 423.324219 546.539062 416.117188 545.085938 C 418.589844 539.359375 424.5 535.554688 427.285156 529.78125 C 433.816406 516.226562 422.714844 507.699219 416.839844 497.195312 C 416.082031 496.664062 413.09375 491.035156 413.253906 490.695312 C 413.386719 490.398438 413.644531 490.160156 413.9375 489.9375 C 414.144531 489.304688 414.386719 489.316406 414.664062 489.9375 C 417.886719 494.480469 421.269531 498.835938 424.816406 503 Z M 424.816406 503 " fill-opacity="1" fill-rule="nonzero"/><path fill="#faead3" d="M 415.386719 488.488281 C 426.285156 500.257812 449.925781 516.316406 444.199219 535.089844 C 441.859375 542.761719 437.445312 546.675781 429.167969 545.082031 C 435.1875 538.601562 440.136719 534.957031 439.3125 525.140625 C 438.496094 515.410156 431.332031 509.128906 425.542969 502.277344 C 421.574219 499.074219 415.414062 493.984375 415.386719 488.488281 Z M 415.386719 488.488281 " fill-opacity="1" fill-rule="nonzero"/><path fill="#273418" d="M 325.457031 503.722656 C 326.679688 503.65625 326.402344 501.855469 327.300781 500.863281 C 328.816406 499.191406 334.632812 497.304688 333.421875 499.726562 C 329.222656 502.234375 326.675781 506.457031 325.089844 510.980469 C 321.683594 505.15625 314.519531 502.433594 308.039062 502.996094 C 311.023438 499.539062 317.203125 500.730469 321.089844 501.546875 C 320.050781 495.59375 316.105469 488.625 311.683594 484.480469 C 307.039062 480.128906 297.925781 477.582031 297.886719 470.347656 C 304.199219 469.636719 310.808594 476.285156 314.546875 480.890625 C 319.539062 487.046875 323.265625 496.089844 325.457031 503.722656 Z M 325.457031 503.722656 " fill-opacity="1" fill-rule="nonzero"/><path fill="#273418" d="M 508.730469 507.851562 C 503.976562 511.828125 493.066406 511.554688 487.460938 509.628906 C 486.511719 509.304688 485.246094 509.425781 485.019531 508.089844 C 488.183594 507.320312 491.46875 506.578125 494.597656 505.683594 C 495.34375 505.46875 496.789062 505.511719 496.621094 504.460938 C 492.023438 503.320312 487.601562 505.9375 483.589844 506.3125 C 478.339844 506.800781 485.699219 500.777344 487.910156 499.726562 C 492.894531 497.363281 500.730469 497.113281 505.832031 499.230469 C 510.03125 500.96875 512.945312 504.324219 508.730469 507.851562 Z M 508.730469 507.851562 " fill-opacity="1" fill-rule="nonzero"/><path fill="#d85c0f" d="M 494.410156 480.539062 C 496.332031 485.375 492.261719 487.300781 489.003906 489.9375 L 488.285156 487.765625 C 480.128906 500.320312 477.433594 515.554688 469.367188 528.34375 C 466.230469 533.316406 462.984375 538.8125 456.730469 540.003906 C 462.472656 532.929688 467.914062 525.4375 472.09375 517.28125 C 476.597656 508.484375 479.019531 498.53125 483.988281 489.996094 C 485.191406 487.929688 491.5 477.960938 494.410156 480.539062 Z M 494.410156 480.539062 " fill-opacity="1" fill-rule="nonzero"/><path fill="#273418" d="M 452.386719 486.3125 C 451.699219 480.589844 453.242188 475.761719 454.546875 470.351562 C 453.582031 470.660156 452.550781 473.304688 452.246094 474.203125 C 450.910156 478.109375 450.671875 481.453125 450.921875 485.585938 C 443.710938 476.476562 450.050781 466.25 457.089844 459.464844 C 462.84375 469.089844 461.496094 479.394531 452.386719 486.3125 Z M 452.386719 486.3125 " fill-opacity="1" fill-rule="nonzero"/><path fill="#faead3" d="M 557.550781 456.550781 L 578.402344 441.441406 C 579.460938 441.21875 585.820312 444.109375 585.824219 444.585938 L 564.984375 459.355469 Z M 557.550781 456.550781 " fill-opacity="1" fill-rule="nonzero"/><path fill="#273418" d="M 478.496094 529.117188 C 478.324219 528.078125 479.753906 528.132812 480.511719 527.890625 C 482.683594 527.195312 485.007812 526.871094 487.1875 526.214844 C 487.023438 524.917969 483.363281 525.398438 482.484375 525.503906 C 479.011719 525.925781 476.230469 527.878906 472.691406 526.214844 C 478.3125 520.691406 490.015625 517.898438 496.625 522.972656 C 493.230469 529.660156 485.125 530.890625 478.496094 529.117188 Z M 478.496094 529.117188 " fill-opacity="1" fill-rule="nonzero"/><path fill="#faead3" d="M 494.445312 471.066406 C 486.058594 471.289062 477.140625 467.738281 473.410156 459.839844 C 480.183594 455.515625 481.953125 461.105469 485.796875 463.398438 C 489.074219 465.355469 494.351562 465.4375 494.445312 471.066406 Z M 494.445312 471.066406 " fill-opacity="1" fill-rule="nonzero"/><path fill="#273418" d="M 460.363281 527.675781 C 460.726562 524.09375 459.300781 520.800781 458.171875 517.519531 C 456.878906 517.351562 457.464844 519.152344 457.542969 519.964844 C 457.777344 522.453125 458.671875 524.976562 458.175781 527.671875 C 457.070312 527.265625 456.214844 525.117188 455.632812 524.054688 C 452.511719 518.355469 451.304688 513.90625 453.109375 507.359375 C 460.15625 509.511719 463.847656 518.550781 461.910156 525.242188 C 461.628906 526.21875 461.640625 527.453125 460.363281 527.675781 Z M 460.363281 527.675781 " fill-opacity="1" fill-rule="nonzero"/><path fill="#dc8a1a" d="M 438.351562 485.101562 C 441.273438 489.257812 442.722656 493.4375 442.21875 498.648438 C 440.296875 497.285156 439.539062 494.957031 437.886719 493.191406 C 435.339844 490.460938 429.480469 487.027344 428.601562 483.613281 C 427.203125 478.195312 430.546875 480.109375 433.886719 477.621094 C 435.554688 479.089844 434.96875 481.621094 436.09375 483.390625 C 436.710938 484.359375 437.984375 484.582031 438.351562 485.101562 Z M 438.351562 485.101562 " fill-opacity="1" fill-rule="nonzero"/><path fill="#faead3" d="M 573.5 498.640625 L 572.460938 492.800781 C 569.46875 483.679688 561.863281 476.929688 553.6875 472.398438 L 539.421875 465.273438 C 554.65625 468.886719 577.898438 479.261719 573.5 498.640625 Z M 573.5 498.640625 " fill-opacity="1" fill-rule="nonzero"/><path fill="#273418" d="M 471.953125 504.449219 L 467.246094 497.199219 L 470.503906 506.628906 C 466.320312 504.476562 462.15625 499.589844 462.171875 494.65625 C 462.195312 485.878906 468.945312 491.597656 471.257812 496.089844 C 472.796875 499.074219 473.214844 501.214844 471.953125 504.449219 Z M 471.953125 504.449219 " fill-opacity="1" fill-rule="nonzero"/><path fill="#dc8a1a" d="M 438.597656 500.089844 L 428.199219 494.898438 C 425.015625 492.214844 420.144531 488.394531 422.613281 483.742188 C 425.34375 481.785156 431.203125 491.847656 433.914062 492.8125 Z M 438.597656 500.089844 " fill-opacity="1" fill-rule="nonzero"/><path fill="#dc8a1a" d="M 423.179688 468.28125 C 429.261719 467.203125 431.605469 476.4375 425.027344 477.472656 C 419.089844 478.40625 417.140625 469.351562 423.179688 468.28125 Z M 423.179688 468.28125 " fill-opacity="1" fill-rule="nonzero"/><path fill="#d85c0f" d="M 434.039062 451.625 C 440.828125 449.605469 443.390625 460.6875 434.667969 459.421875 C 429.601562 458.683594 430.65625 452.632812 434.039062 451.625 Z M 434.039062 451.625 " fill-opacity="1" fill-rule="nonzero"/><path fill="#dc8a1a" d="M 286.285156 495.019531 C 286.226562 493.210938 287.871094 492.332031 287.730469 490.351562 C 287.578125 488.183594 284.308594 485.855469 285.554688 482.679688 C 296.734375 482.445312 293.890625 491.453125 286.285156 495.019531 Z M 286.285156 495.019531 " fill-opacity="1" fill-rule="nonzero"/><path fill="#2a0a17" d="M 549.363281 477.019531 C 557.730469 474.484375 555.226562 487.949219 548.117188 484.496094 C 544.691406 482.832031 546.15625 477.992188 549.363281 477.019531 Z M 549.363281 477.019531 " fill-opacity="1" fill-rule="nonzero"/><path fill="#dc8a1a" d="M 417.355469 460.410156 C 419.859375 462.472656 419.945312 467.128906 415.757812 467.5 C 407.066406 468.273438 411.433594 455.539062 417.355469 460.410156 Z M 417.355469 460.410156 " fill-opacity="1" fill-rule="nonzero"/><path fill="#273418" d="M 381.296875 461.636719 C 378.261719 460.363281 379.242188 460.476562 376.585938 458.730469 C 372.816406 456.246094 369.375 457.703125 365.34375 457.648438 C 368 454.40625 370.601562 452.800781 374.980469 453.8125 C 379.652344 454.886719 380.816406 461.441406 381.296875 461.636719 Z M 381.296875 461.636719 " fill-opacity="1" fill-rule="nonzero"/><path fill="#dc8a1a" d="M 316.742188 476.152344 C 314.753906 470.808594 321.4375 466.007812 324.640625 470.792969 C 327.824219 475.554688 320.332031 476.984375 316.742188 476.152344 Z M 316.742188 476.152344 " fill-opacity="1" fill-rule="nonzero"/><path fill="#dc8a1a" d="M 288.460938 497.921875 C 288.410156 493.167969 299.886719 490.082031 300.765625 493.976562 C 302.019531 499.546875 290.714844 496.804688 288.460938 497.921875 Z M 288.460938 497.921875 " fill-opacity="1" fill-rule="nonzero"/><path fill="#dc8a1a" d="M 405.019531 450.894531 C 411.578125 448.910156 413.738281 459.265625 406.359375 458.011719 C 402.800781 457.410156 401.609375 451.925781 405.019531 450.894531 Z M 405.019531 450.894531 " fill-opacity="1" fill-rule="nonzero"/><path fill="#273418" d="M 477.535156 478.554688 C 479.578125 480.847656 480.613281 486.335938 479.207031 489.207031 C 477.003906 488.734375 478.117188 483.109375 477.761719 482.683594 L 476.328125 483.03125 L 475.960938 485.578125 C 472.917969 483.175781 471.875 480.609375 473.421875 476.878906 C 474.140625 476.375 476.921875 477.867188 477.535156 478.554688 Z M 477.535156 478.554688 " fill-opacity="1" fill-rule="nonzero"/><path fill="#dc8a1a" d="M 399.898438 458.066406 C 402.1875 457.683594 410.050781 467.953125 400.675781 465.839844 C 396.0625 464.800781 396.726562 458.601562 399.898438 458.066406 Z M 399.898438 458.066406 " fill-opacity="1" fill-rule="nonzero"/><path fill="#273418" d="M 358.808594 457.289062 C 358.464844 458.496094 356.355469 458.078125 354.914062 458.824219 C 351.691406 460.5 350.777344 465.847656 346.480469 465.984375 C 347.800781 458.730469 351.511719 456.410156 358.808594 457.289062 Z M 358.808594 457.289062 " fill-opacity="1" fill-rule="nonzero"/><path fill="#dc8a1a" d="M 415.035156 475.429688 C 416.367188 475.148438 422.699219 481.792969 419.308594 482.648438 C 414.3125 483.90625 412.144531 476.039062 415.035156 475.429688 Z M 415.035156 475.429688 " fill-opacity="1" fill-rule="nonzero"/><path fill="#dc8a1a" d="M 408.496094 467.457031 C 409.375 468.667969 412 470.277344 412.367188 471.578125 C 414.136719 477.847656 401.285156 473.136719 408.496094 467.457031 Z M 408.496094 467.457031 " fill-opacity="1" fill-rule="nonzero"/><path fill="#273418" d="M 338.503906 480.511719 C 337.488281 482.117188 337.105469 483.269531 337.003906 485.203125 C 336.839844 488.214844 338.019531 489.527344 338.144531 492.113281 C 333.105469 489.6875 332.742188 482.164062 338.503906 480.511719 Z M 338.503906 480.511719 " fill-opacity="1" fill-rule="nonzero"/><path fill="#2a0a17" d="M 524.007812 514.800781 C 525.726562 516.488281 524.804688 519.992188 521.082031 518.8125 C 516.628906 517.402344 520.820312 511.664062 524.007812 514.800781 Z M 524.007812 514.800781 " fill-opacity="1" fill-rule="nonzero"/><path fill="#273418" d="M 344.300781 467.449219 L 340.777344 470.082031 L 337.785156 476.148438 C 336.824219 471.542969 339.597656 467.699219 344.300781 467.449219 Z M 344.300781 467.449219 " fill-opacity="1" fill-rule="nonzero"/><path fill="#273418" d="M 381.296875 461.636719 C 383.511719 462.550781 388.449219 460.566406 387.816406 466.714844 C 386.421875 465.972656 386.136719 464.128906 384.585938 463.0625 C 383.929688 462.613281 382.261719 462.042969 381.296875 461.636719 Z M 381.296875 461.636719 " fill-opacity="1" fill-rule="nonzero"/><path fill="#2a0a17" d="M 484.273438 282.777344 C 462.5 257.0625 419.050781 256.496094 411.371094 217.835938 C 408.003906 200.878906 412.875 187.777344 425.542969 176.453125 C 394.308594 190.007812 383.578125 225.730469 403.191406 254.320312 C 417.273438 274.84375 442.722656 283.824219 458.554688 302.703125 C 466.4375 312.109375 471.785156 326.054688 462.550781 336.472656 C 454.289062 345.789062 438.953125 344.761719 437.878906 331.015625 C 446.945312 344.886719 464.175781 330.296875 454.207031 317.9375 C 445.730469 307.429688 429.875 317.292969 429.832031 329.925781 C 429.765625 350.6875 455.84375 355.933594 471.730469 349.289062 C 499.871094 337.515625 502.894531 304.773438 484.273438 282.777344 Z M 479.222656 335.367188 C 487.410156 307.984375 469.402344 291.308594 448.691406 277.738281 C 436.175781 269.539062 421.472656 263.691406 411.761719 251.921875 L 421.898438 258.101562 C 439.71875 267.960938 462.175781 273.921875 475.566406 290.035156 C 486.285156 302.929688 491.671875 321.792969 479.222656 335.367188 Z M 479.222656 335.367188 " fill-opacity="1" fill-rule="nonzero"/><path fill="#273418" d="M 375.855469 415.195312 C 369.121094 400.941406 349.078125 404.714844 340.679688 391.972656 L 340.679688 406.847656 C 340.679688 416.398438 352.957031 429.394531 362.878906 429.628906 L 379.855469 430.0625 C 378.683594 425.257812 377.980469 419.691406 375.855469 415.195312 Z M 371.136719 421.726562 L 360.988281 415.199219 C 362.660156 414.769531 372.664062 420.082031 371.136719 421.726562 Z M 371.136719 421.726562 " fill-opacity="1" fill-rule="nonzero"/><path fill="#273418" d="M 313.628906 407.0625 C 304.738281 403.863281 297.914062 407.90625 289.550781 407.199219 C 286.722656 406.960938 284.546875 405.726562 281.929688 405.042969 C 286.359375 414.0625 294.660156 425.121094 305.472656 426.109375 C 313.226562 426.816406 321.851562 424.402344 329.800781 425.347656 C 324.550781 419.265625 321.789062 410 313.628906 407.0625 Z M 305.867188 415.203125 C 311.128906 414.902344 317.996094 415.464844 321.09375 420.265625 Z M 305.867188 415.203125 " fill-opacity="1" fill-rule="nonzero"/><path fill="#273418" d="M 511.332031 404.144531 C 504.457031 406.695312 499.34375 422.097656 492.996094 426.796875 C 502.65625 423.785156 517.699219 427.472656 524.890625 419.890625 C 529.621094 414.898438 533.3125 407.371094 537.96875 402.140625 C 530.074219 403.90625 518.667969 401.425781 511.332031 404.144531 Z M 505.328125 418.816406 C 508.453125 414.777344 513.886719 411.769531 519.105469 411.574219 Z M 505.328125 418.816406 " fill-opacity="1" fill-rule="nonzero"/><path fill="#171717" d="M 511.136719 485.585938 C 512.589844 482.304688 515.542969 479.003906 518.375 476.878906 C 517.742188 480.5625 513.777344 483.230469 511.136719 485.585938 Z M 511.136719 485.585938 " fill-opacity="1" fill-rule="nonzero"/><path fill="#1a1a1a" d="M 530.722656 497.921875 C 531.417969 494.964844 534.140625 492.367188 536.507812 490.664062 C 536.167969 493.769531 532.992188 496.105469 530.722656 497.921875 Z M 530.722656 497.921875 " fill-opacity="1" fill-rule="nonzero"/><path fill="#171717" d="M 523.445312 490.660156 C 523.363281 490.730469 521.921875 490.925781 522.015625 490.308594 C 523.375 487.988281 524.574219 485.460938 527.082031 484.132812 C 527.132812 485.21875 523.820312 490.339844 523.445312 490.660156 Z M 523.445312 490.660156 " fill-opacity="1" fill-rule="nonzero"/><path fill="#780a11" d="M 379.71875 309.699219 C 379.71875 310.105469 379.679688 310.511719 379.597656 310.914062 C 379.519531 311.3125 379.402344 311.703125 379.246094 312.082031 C 379.089844 312.457031 378.898438 312.816406 378.671875 313.15625 C 378.445312 313.496094 378.1875 313.8125 377.898438 314.101562 C 377.609375 314.386719 377.292969 314.648438 376.953125 314.875 C 376.613281 315.101562 376.257812 315.292969 375.878906 315.449219 C 375.5 315.605469 375.113281 315.722656 374.710938 315.804688 C 374.3125 315.882812 373.90625 315.921875 373.5 315.921875 C 373.089844 315.921875 372.683594 315.882812 372.285156 315.804688 C 371.882812 315.722656 371.496094 315.605469 371.117188 315.449219 C 370.738281 315.292969 370.382812 315.101562 370.042969 314.875 C 369.703125 314.648438 369.386719 314.386719 369.097656 314.101562 C 368.808594 313.8125 368.550781 313.496094 368.324219 313.15625 C 368.097656 312.816406 367.90625 312.457031 367.75 312.082031 C 367.59375 311.703125 367.476562 311.3125 367.398438 310.914062 C 367.316406 310.511719 367.277344 310.105469 367.277344 309.699219 C 367.277344 309.289062 367.316406 308.886719 367.398438 308.484375 C 367.476562 308.082031 367.59375 307.695312 367.75 307.316406 C 367.90625 306.9375 368.097656 306.582031 368.324219 306.242188 C 368.550781 305.902344 368.808594 305.585938 369.097656 305.296875 C 369.386719 305.007812 369.703125 304.75 370.042969 304.523438 C 370.382812 304.296875 370.738281 304.105469 371.117188 303.949219 C 371.496094 303.792969 371.882812 303.675781 372.285156 303.59375 C 372.683594 303.515625 373.089844 303.476562 373.5 303.476562 C 373.90625 303.476562 374.3125 303.515625 374.710938 303.59375 C 375.113281 303.675781 375.5 303.792969 375.878906 303.949219 C 376.257812 304.105469 376.613281 304.296875 376.953125 304.523438 C 377.292969 304.75 377.609375 305.007812 377.898438 305.296875 C 378.1875 305.585938 378.445312 305.902344 378.671875 306.242188 C 378.898438 306.582031 379.089844 306.9375 379.246094 307.316406 C 379.402344 307.695312 379.519531 308.082031 379.597656 308.484375 C 379.679688 308.886719 379.71875 309.289062 379.71875 309.699219 Z M 379.71875 309.699219 " fill-opacity="1" fill-rule="nonzero"/></svg>