<svg xmlns="http://www.w3.org/2000/svg" xmlns:xlink="http://www.w3.org/1999/xlink" viewBox="39 255 733 300" preserveAspectRatio="xMidYMid meet" version="1.0"><defs><clipPath id="f402630439"><path d="M 0.121094 56 L 252 56 L 252 299 L 0.121094 299 Z M 0.121094 56 " clip-rule="nonzero"/></clipPath><clipPath id="7d56f6009a"><path d="M 25.515625 0.210938 L 297.761719 0.210938 L 297.761719 280.917969 L 25.515625 280.917969 Z M 25.515625 0.210938 " clip-rule="nonzero"/></clipPath><clipPath id="9a8a6e35c5"><path d="M 298.03125 154 L 366 154 L 366 254 L 298.03125 254 Z M 298.03125 154 " clip-rule="nonzero"/></clipPath><clipPath id="c4ad72cd1c"><path d="M 298.03125 40 L 369 40 L 369 144 L 298.03125 144 Z M 298.03125 40 " clip-rule="nonzero"/></clipPath><clipPath id="e516fa454e"><path d="M 597 15.148438 L 647 15.148438 L 647 37 L 597 37 Z M 597 15.148438 " clip-rule="nonzero"/></clipPath><clipPath id="002550318b"><path d="M 660 36 L 731.78125 36 L 731.78125 144 L 660 144 Z M 660 36 " clip-rule="nonzero"/></clipPath><clipPath id="42f088d889"><rect x="0" width="733" y="0" height="300"/></clipPath></defs><g transform="matrix(1, 0, 0, 1, 39, 255)"><g clip-path="url(#42f088d889)"><g clip-path="url(#f402630439)"><path fill="#273418" d="M 251.273438 197.820312 C 250.328125 213.09375 246.101562 227.835938 238.292969 241.023438 C 223.480469 266.039062 197.996094 284.886719 170.425781 293.574219 C 154.371094 298.632812 137.394531 299.765625 120.699219 298.054688 C 105.277344 296.46875 89.988281 292.855469 75.589844 287.085938 C 48.359375 276.175781 24.363281 257.148438 10.886719 230.710938 C 4.316406 217.8125 0.5 203.59375 0.273438 189.09375 C 0.015625 172.96875 3.957031 157.023438 9.914062 142.132812 C 11.6875 137.695312 13.605469 133.269531 15.691406 128.914062 C 21.296875 114.207031 30.011719 100.652344 41.015625 89.457031 C 60.53125 69.585938 86.785156 58.335938 114.453125 56.371094 C 142.726562 54.367188 171.726562 61.890625 195.277344 77.703125 C 207.273438 85.75 217.894531 95.765625 226.488281 107.378906 C 235.628906 119.71875 241.929688 133.78125 245.820312 148.605469 C 250 164.515625 252.292969 181.363281 251.273438 197.820312 " fill-opacity="1" fill-rule="nonzero"/></g><g clip-path="url(#7d56f6009a)"><path fill="#faead3" d="M 290.511719 123.882812 C 288.484375 122.980469 286.570312 122.496094 284.332031 122.371094 C 282.234375 122.253906 280.070312 122.589844 278.039062 123.097656 C 277.550781 123.21875 277.085938 123.429688 276.664062 123.703125 C 267.746094 128.933594 258.890625 134.265625 250.015625 139.574219 C 241.09375 144.910156 232.15625 150.21875 223.121094 155.363281 C 220.554688 156.820312 217.984375 158.269531 215.402344 159.699219 C 213.457031 160.777344 211.921875 162.089844 211.042969 164.171875 C 210.683594 165.03125 210.535156 165.839844 210.511719 166.648438 C 206.722656 169.304688 202.929688 171.960938 199.136719 174.613281 C 199.082031 174.652344 199.023438 174.695312 198.96875 174.734375 C 189.925781 171.789062 180.652344 169.574219 171.273438 168.011719 C 171.058594 167.976562 170.839844 167.941406 170.625 167.90625 C 171.152344 167.765625 171.761719 167.609375 172.464844 167.4375 C 172.464844 167.4375 172.773438 167.175781 174.332031 167.007812 C 177.910156 166.621094 181.511719 166.746094 185.074219 166.09375 C 186.96875 165.746094 188.949219 165.074219 190.539062 163.96875 C 192.683594 162.476562 194.203125 160.523438 195.703125 158.398438 C 196.980469 156.589844 198.136719 154.699219 199.449219 152.914062 C 199.640625 152.679688 199.835938 152.445312 200.035156 152.21875 C 201.496094 150.554688 202.117188 147.980469 200.835938 145.992188 C 199.550781 143.992188 197.359375 143.132812 195.046875 143.628906 C 194.882812 143.664062 194.71875 143.695312 194.554688 143.726562 C 190.804688 144.070312 186.90625 143.5 183.167969 144.019531 C 183.703125 143.695312 184.121094 143.253906 184.527344 142.804688 C 187.585938 139.433594 189.453125 136.136719 189.824219 135.503906 C 190.703125 134.007812 191.417969 132.453125 192.085938 130.847656 C 192.570312 129.675781 192.976562 128.46875 193.15625 127.210938 C 193.15625 127.207031 193.15625 127.207031 193.15625 127.203125 C 193.277344 126.765625 193.335938 126.3125 193.339844 125.84375 C 193.75 122.519531 193.121094 119.105469 192.242188 115.90625 C 191.523438 113.300781 190.648438 110.734375 190.199219 108.066406 C 190.148438 107.527344 190.113281 106.988281 190.105469 106.449219 C 190.097656 106.03125 190.039062 105.621094 189.9375 105.230469 C 191.421875 104.960938 192.953125 104.042969 193.957031 102.945312 C 195.371094 101.402344 196.019531 99.609375 196.234375 97.558594 C 196.566406 94.402344 194.914062 91.226562 192.292969 89.515625 C 190.34375 88.242188 187.945312 87.984375 185.734375 88.53125 C 186.644531 87.488281 187.273438 86.195312 187.464844 84.742188 C 187.886719 81.601562 186.375 78.847656 183.835938 77.078125 C 183.769531 77.03125 183.699219 76.984375 183.628906 76.9375 C 183.742188 76.863281 183.851562 76.789062 183.960938 76.710938 C 184.265625 76.519531 184.558594 76.289062 184.828125 76.023438 C 185.027344 75.847656 185.203125 75.652344 185.359375 75.445312 C 187.476562 72.929688 187.8125 69.515625 186.320312 66.539062 C 184.984375 63.875 182.199219 62.269531 179.300781 62.050781 C 176.828125 61.863281 174.644531 63.097656 173.152344 64.933594 C 172.128906 62.835938 170.6875 61.03125 168.953125 59.507812 C 168.957031 59.402344 168.960938 59.296875 168.960938 59.1875 C 168.964844 58.105469 168.628906 57.144531 168.152344 56.191406 C 167.695312 55.28125 166.988281 54.480469 166.324219 53.71875 C 165.414062 52.675781 164.421875 51.777344 163.351562 50.933594 C 163.679688 50.96875 164.007812 50.984375 164.339844 50.976562 C 164.453125 50.976562 164.566406 50.972656 164.675781 50.960938 C 165.113281 50.925781 165.535156 50.863281 165.941406 50.761719 C 167.492188 50.449219 168.875 49.867188 170.105469 48.695312 C 171.148438 47.703125 171.984375 46.261719 172.320312 44.855469 C 172.925781 42.300781 172.417969 38.804688 170.054688 36.460938 C 167.1875 33.621094 162.230469 33.023438 159.054688 35.199219 C 159.289062 34.941406 159.519531 34.671875 159.734375 34.398438 C 161.8125 31.75 163.386719 28.707031 163.941406 25.347656 C 164.507812 21.910156 164.488281 18.339844 163.28125 15.023438 C 162.675781 13.351562 161.933594 11.726562 160.875 10.292969 C 159.519531 8.453125 158.105469 7.039062 156.257812 5.691406 C 153.363281 3.574219 149.769531 2.582031 146.242188 2.300781 C 142.445312 2.003906 138.402344 2.945312 135.117188 4.867188 C 131.371094 7.054688 128.679688 10.558594 127.382812 14.679688 C 127.019531 15.835938 127.1875 17.179688 127.742188 18.320312 C 126.792969 18.839844 125.871094 19.40625 124.972656 20.011719 C 125.019531 19.796875 125.058594 19.578125 125.09375 19.359375 C 125.304688 17.945312 125.460938 16.597656 125.292969 15.179688 C 125.070312 13.261719 124.648438 11.71875 123.878906 9.945312 C 122.640625 7.097656 120.335938 4.746094 117.8125 3.003906 C 113.175781 -0.199219 106.773438 -0.476562 101.636719 1.601562 C 98.75 2.769531 96.1875 4.320312 93.914062 6.480469 C 91.835938 8.453125 90.074219 10.917969 88.792969 13.480469 C 86.140625 18.777344 85.03125 24.789062 85.632812 30.691406 C 86.136719 35.636719 87.472656 40.417969 89.617188 44.875 C 87.332031 45.183594 85.214844 46.554688 83.898438 48.496094 C 82.332031 50.8125 82.199219 53.929688 83.265625 56.460938 C 83.335938 56.628906 83.410156 56.792969 83.492188 56.953125 C 78.550781 58.144531 73.988281 60.648438 70.632812 64.710938 C 69.648438 65.902344 68.761719 67.164062 67.992188 68.484375 C 67.035156 67.476562 65.816406 66.71875 64.417969 66.347656 C 58.628906 64.816406 53.683594 71 55.074219 76.445312 C 55.664062 78.75 57.253906 80.378906 59.257812 81.257812 C 56.304688 81.269531 53.40625 82.707031 51.941406 85.402344 C 50.417969 88.207031 50.429688 91.550781 51.917969 94.363281 C 53.796875 97.921875 58.015625 99.164062 61.726562 98.273438 C 61.910156 98.238281 62.089844 98.1875 62.273438 98.128906 C 62.46875 98.070312 62.660156 97.996094 62.847656 97.914062 C 63.082031 97.820312 63.308594 97.71875 63.53125 97.609375 C 62.101562 99.117188 60.515625 100.476562 59.09375 101.988281 C 57.039062 104.183594 54.96875 106.847656 54.40625 109.882812 C 54.359375 110.148438 54.320312 110.414062 54.296875 110.675781 C 53.894531 113.851562 54.125 117.042969 55.320312 120.054688 C 56.589844 123.242188 58.382812 126.15625 60.929688 128.488281 C 62.558594 129.976562 65.183594 130.558594 67.144531 129.292969 C 67.371094 129.144531 67.582031 128.984375 67.785156 128.8125 C 67.945312 129.796875 68.441406 132.179688 70.144531 134.589844 C 69.613281 134.214844 67.074219 132.667969 62.8125 133.699219 C 62.515625 133.769531 62.234375 133.863281 62.234375 133.863281 C 61.832031 133.996094 61.449219 134.164062 61.085938 134.367188 C 60.542969 134.640625 60.046875 134.960938 59.5625 135.441406 C 58.898438 136.097656 58.515625 136.773438 58.164062 137.605469 C 57.53125 139.109375 57.453125 140.664062 57.800781 142.257812 C 58.148438 143.855469 59.03125 145.1875 60.210938 146.164062 C 60.117188 146.179688 60.019531 146.195312 59.925781 146.207031 C 58.957031 146.316406 57.984375 146.371094 57.015625 146.320312 C 55.878906 146.054688 54.804688 145.578125 53.679688 145.265625 C 51.683594 144.714844 49.535156 145.488281 48.289062 147.105469 C 46.976562 148.8125 46.953125 150.917969 47.886719 152.8125 C 49.476562 156.03125 51.570312 159.117188 54.121094 161.644531 C 55.523438 163.03125 57.132812 164.324219 58.871094 165.257812 C 60.867188 166.324219 62.835938 166.898438 65.03125 167.171875 C 65.203125 167.199219 65.382812 167.21875 65.566406 167.234375 C 68.675781 167.492188 71.769531 166.96875 74.871094 166.765625 C 77.105469 166.617188 78.226562 166.574219 79.257812 166.804688 C 80.292969 167.035156 81.136719 167.398438 81.824219 167.734375 C 77.246094 168.394531 72.6875 169.203125 68.167969 170.21875 C 63.035156 171.367188 57.9375 172.777344 52.988281 174.570312 C 47.992188 176.382812 43.003906 178.53125 38.5625 181.488281 C 34.210938 184.390625 29.980469 188.136719 27.71875 192.960938 C 26.402344 195.761719 25.628906 198.617188 25.527344 201.730469 C 25.425781 204.726562 26.015625 207.839844 26.84375 210.710938 C 28.589844 216.761719 31.710938 222.402344 35.402344 227.46875 C 39.410156 232.960938 43.984375 237.996094 49.007812 242.574219 C 53.597656 246.753906 58.519531 250.628906 63.710938 254.039062 C 66.582031 255.925781 69.65625 257.476562 72.648438 259.160156 C 71.023438 259.597656 69.425781 260.171875 67.929688 260.941406 C 65.085938 262.398438 62.816406 265.488281 63.742188 268.824219 C 64.6875 272.234375 67.820312 273.8125 70.890625 274.925781 C 75.746094 276.6875 80.960938 277.621094 86.054688 278.386719 C 92.246094 279.316406 98.480469 279.925781 104.730469 280.300781 C 116.054688 280.980469 127.421875 281 138.757812 280.570312 C 144.496094 280.351562 150.230469 279.976562 155.945312 279.394531 C 162.316406 278.742188 168.71875 277.914062 174.957031 276.433594 C 177.625 275.804688 180.273438 275.0625 182.785156 273.953125 C 184.441406 273.222656 185.9375 272.007812 186.835938 270.410156 C 187.996094 268.347656 187.945312 265.78125 186.710938 263.773438 C 185.179688 261.289062 182.21875 260.148438 179.546875 259.394531 C 179.253906 259.3125 178.960938 259.234375 178.664062 259.15625 C 188.496094 253.496094 197.9375 246.953125 205.957031 238.917969 C 210.695312 234.171875 214.976562 228.820312 218.28125 222.96875 C 220.046875 219.839844 221.515625 216.535156 222.738281 213.152344 C 223.90625 209.910156 224.757812 206.613281 225.046875 203.167969 C 225.359375 199.414062 224.519531 195.785156 222.964844 192.390625 C 222.207031 190.730469 221.179688 189.253906 220.082031 187.808594 C 220.472656 187.5 220.851562 187.1875 221.234375 186.890625 C 221.558594 186.644531 221.890625 186.402344 222.234375 186.179688 C 223.386719 186.429688 224.523438 186.726562 225.714844 186.851562 C 227.859375 187.074219 229.875 186.464844 231.582031 185.257812 C 233.300781 184.121094 235.015625 182.980469 236.730469 181.839844 C 240.953125 179.039062 245.171875 176.234375 249.390625 173.433594 C 254.5 170.042969 259.605469 166.648438 264.710938 163.257812 C 269.125 160.328125 273.542969 157.394531 277.957031 154.464844 C 279.925781 153.15625 281.953125 151.902344 283.890625 150.542969 C 290.015625 149.46875 295.851562 145.210938 297.375 138.945312 C 298.804688 133.066406 296.210938 126.421875 290.511719 123.882812 Z M 290.511719 123.882812 " fill-opacity="1" fill-rule="nonzero"/></g><path fill="#780a11" d="M 90.082031 50.011719 C 93.652344 49.449219 94.886719 55.257812 91.535156 55.996094 C 86.757812 57.046875 86.605469 50.5625 90.082031 50.011719 Z M 90.082031 50.011719 " fill-opacity="1" fill-rule="nonzero"/><path fill="#2a0a17" d="M 126.195312 111.765625 C 127.203125 104.820312 130.710938 97.691406 136.773438 93.929688 C 137.121094 93.714844 137.65625 92.902344 138.035156 93.5625 C 132.199219 99.289062 131.128906 107.828125 130.71875 115.640625 C 130.355469 122.507812 130.640625 129.109375 129.820312 136.050781 C 128.925781 143.609375 127.195312 151.144531 124.980469 158.398438 C 132.726562 148.652344 138.84375 134.335938 134.363281 121.996094 C 134.96875 121.386719 136.875 124.695312 137.140625 125.140625 C 141.003906 131.609375 142.953125 138.976562 141.007812 146.445312 C 138.503906 156.074219 129.0625 163.371094 122.117188 169.847656 C 148.371094 169.269531 174.878906 171.914062 199.78125 180.410156 L 215.4375 169.453125 C 216.464844 168.191406 214.378906 166.734375 216.847656 164.765625 C 238.027344 153.085938 258.542969 140.277344 279.402344 128.050781 C 295.566406 123.941406 297.644531 143.5625 281.898438 145.6875 L 228.871094 180.90625 C 226.652344 183.003906 222.945312 180.546875 221.210938 180.96875 C 219.128906 181.476562 214.902344 186.035156 212.332031 186.628906 C 212.074219 187.664062 213.105469 187.523438 213.773438 188.234375 C 221.289062 196.25 221.253906 202.519531 217.535156 212.492188 C 209.835938 233.132812 189.902344 247.300781 171.304688 257.390625 L 170.285156 262.703125 C 172.480469 263.226562 182.316406 264.398438 182.554688 267.019531 C 182.730469 268.984375 179.175781 269.914062 177.722656 270.363281 C 167.207031 273.625 150.609375 274.960938 139.484375 275.402344 C 120.851562 276.144531 90.671875 275.914062 73.136719 270.273438 C 61.5 266.527344 75.769531 263.132812 80.480469 263.113281 C 79.851562 261.539062 79.945312 258.59375 79.183594 257.257812 C 78.699219 256.414062 69.589844 251.6875 67.863281 250.605469 C 53.214844 241.421875 32.550781 222.179688 30.730469 203.957031 C 29.089844 187.554688 51.402344 179.894531 64.066406 176.511719 C 80.910156 172.011719 98.757812 170.839844 116.132812 169.867188 C 122.492188 159.75 119.398438 145.859375 114.960938 135.503906 C 110.25 124.519531 100.460938 112.914062 87.21875 114.222656 C 75.765625 115.355469 70.921875 129.957031 83.316406 134.082031 L 87.007812 134.667969 C 75.886719 138.128906 69.1875 126.683594 73.058594 116.804688 C 78.972656 101.730469 97.03125 103.984375 107.789062 112.421875 C 117 119.644531 118.515625 126.566406 122.0625 136.976562 C 122.246094 137.511719 122.179688 138.226562 122.929688 138.355469 C 121.878906 120.433594 121.875 100.15625 111.921875 84.554688 C 107.160156 77.089844 98.679688 69.1875 89.046875 71.875 C 83.546875 73.410156 76.574219 80.050781 80.132812 86.140625 C 82.503906 90.195312 88.691406 90.722656 90.488281 86.003906 L 91.292969 82.726562 C 95.953125 90.921875 86.921875 96.480469 79.238281 94.398438 C 70.253906 91.964844 67.84375 81.777344 71.019531 73.855469 C 77.269531 58.265625 97.003906 58.117188 108.652344 67.789062 C 121.960938 78.835938 123.46875 94.335938 125.367188 110.347656 C 125.441406 110.960938 125.449219 111.609375 126.195312 111.765625 Z M 126.195312 111.765625 " fill-opacity="1" fill-rule="nonzero"/><path fill="#2a0a17" d="M 107.007812 19.730469 C 107.667969 23.308594 112.625 22.765625 113.113281 19.085938 C 114.039062 12.082031 106.039062 12.855469 102.589844 17.957031 C 94.660156 29.695312 107.351562 49.765625 111.695312 61.054688 C 112.351562 62.765625 113.3125 64.460938 113.132812 66.359375 L 100.492188 51.828125 C 90.84375 41.480469 86.378906 23.925781 95.824219 11.992188 C 101.386719 4.960938 112.210938 2.300781 118.203125 10.355469 C 123.121094 16.96875 118.707031 26.964844 110.109375 25.828125 C 106.960938 25.410156 103.902344 22.378906 107.007812 19.730469 Z M 107.007812 19.730469 " fill-opacity="1" fill-rule="nonzero"/><path fill="#2a0a17" d="M 157.632812 157.984375 C 157.804688 157.3125 158.824219 157.292969 159.472656 156.765625 C 164.601562 152.574219 167.902344 145.25 165.183594 138.761719 C 161.851562 130.8125 151.675781 135.515625 155.726562 142.101562 C 157.257812 144.597656 159.6875 143.488281 162.117188 143.464844 C 156.925781 151.507812 147.035156 144.84375 147.457031 136.578125 C 148.171875 122.636719 168.835938 121.957031 172.917969 135.101562 C 176.429688 146.398438 168.675781 156.203125 157.632812 157.984375 Z M 157.632812 157.984375 " fill-opacity="1" fill-rule="nonzero"/><path fill="#2a0a17" d="M 155.445312 11.691406 C 164.179688 20.96875 156.589844 38.457031 144.070312 34.75 C 138.660156 33.144531 135.042969 25.605469 141.300781 22.59375 C 140.339844 29.40625 149.167969 29.769531 150.980469 23.90625 C 154.285156 13.226562 138.878906 10.039062 132.328125 16.046875 C 135.304688 6.332031 148.835938 4.675781 155.445312 11.691406 Z M 155.445312 11.691406 " fill-opacity="1" fill-rule="nonzero"/><path fill="#273418" d="M 163.75 59.40625 C 159.765625 57.859375 155.464844 55.988281 151.191406 55.425781 C 150.75 55.367188 149.785156 54.972656 149.878906 55.71875 C 156.257812 59.234375 166.613281 60.632812 169.054688 68.40625 C 165.851562 65.636719 162.066406 63.960938 157.828125 63.503906 C 156.140625 63.320312 154.398438 63.628906 152.632812 63.390625 C 142.859375 62.078125 134.898438 50.625 133.550781 41.410156 L 136.210938 44.671875 C 143.46875 50.738281 153.398438 49.265625 160.683594 55.324219 C 161.191406 55.75 164.386719 58.789062 163.75 59.40625 Z M 163.75 59.40625 " fill-opacity="1" fill-rule="nonzero"/><path fill="#273418" d="M 180.902344 139.171875 C 183.613281 132.9375 185.40625 127.179688 183.34375 120.359375 L 182.421875 126.992188 L 181.105469 132.214844 C 178.335938 128.78125 175.863281 123.449219 176.445312 118.957031 C 177.09375 113.949219 181.828125 109.996094 184.976562 106.449219 C 185.054688 113.253906 189.125 118.9375 188.210938 125.84375 C 187.644531 130.121094 183.703125 135.972656 180.902344 139.171875 Z M 180.902344 139.171875 " fill-opacity="1" fill-rule="nonzero"/><path fill="#273418" d="M 64.558594 124.855469 C 60.898438 121.558594 58.507812 116.246094 59.351562 111.25 C 60.046875 107.132812 65.222656 103.511719 67.824219 100.515625 L 69.453125 97.453125 C 70.023438 101.691406 71.03125 105.585938 69.210938 109.675781 C 67.265625 114.042969 62.585938 115.464844 63.375 121.34375 C 63.554688 122.675781 64.375 123.597656 64.558594 124.855469 Z M 64.558594 124.855469 " fill-opacity="1" fill-rule="nonzero"/><path fill="#dc8a1a" d="M 87.730469 123.316406 C 92.542969 123.042969 94.503906 132.464844 87.648438 131.378906 C 84.148438 130.824219 81.789062 123.652344 87.730469 123.316406 Z M 87.730469 123.316406 " fill-opacity="1" fill-rule="nonzero"/><path fill="#dc8a1a" d="M 58.328125 86.484375 C 62.925781 85.480469 64.628906 92.003906 60.910156 93.171875 C 55.101562 95 54.488281 87.324219 58.328125 86.484375 Z M 58.328125 86.484375 " fill-opacity="1" fill-rule="nonzero"/><path fill="#dc8a1a" d="M 187.320312 93.4375 C 191.890625 92.835938 192.519531 99.777344 188.414062 100.304688 C 183.535156 100.929688 182.757812 94.035156 187.320312 93.4375 Z M 187.320312 93.4375 " fill-opacity="1" fill-rule="nonzero"/><path fill="#d85c0f" d="M 104.449219 133.96875 C 107.390625 136.914062 102.6875 141.976562 99.65625 138.566406 C 96.671875 135.207031 101.636719 131.152344 104.449219 133.96875 Z M 104.449219 133.96875 " fill-opacity="1" fill-rule="nonzero"/><path fill="#dc8a1a" d="M 163.644531 39.433594 C 168.128906 38.496094 168.925781 45.414062 164.675781 45.820312 C 160.730469 46.199219 159.925781 40.210938 163.644531 39.433594 Z M 163.644531 39.433594 " fill-opacity="1" fill-rule="nonzero"/><path fill="#d85c0f" d="M 181.203125 72.390625 C 179.175781 74.300781 174.773438 72 176.789062 68.582031 C 179.011719 64.824219 184.335938 69.4375 181.203125 72.390625 Z M 181.203125 72.390625 " fill-opacity="1" fill-rule="nonzero"/><path fill="#d85c0f" d="M 144.457031 156.027344 C 148.484375 155.117188 149.097656 160.527344 145.902344 161.1875 C 142.5 161.890625 141.113281 156.78125 144.457031 156.027344 Z M 144.457031 156.027344 " fill-opacity="1" fill-rule="nonzero"/><path fill="#d85c0f" d="M 64.457031 72.191406 C 65.828125 73.671875 65.109375 76.886719 62.804688 76.878906 C 57.179688 76.863281 61.050781 68.511719 64.457031 72.191406 Z M 64.457031 72.191406 " fill-opacity="1" fill-rule="nonzero"/><path fill="#780a11" d="M 178.15625 81.511719 C 180.3125 79.460938 184.253906 83.25 181.535156 85.511719 C 178.863281 87.730469 175.894531 83.664062 178.15625 81.511719 Z M 178.15625 81.511719 " fill-opacity="1" fill-rule="nonzero"/><path fill="#780a11" d="M 63.597656 138.820312 C 67.503906 137.441406 68.714844 143.359375 64.800781 142.835938 C 62.34375 142.507812 62.175781 139.320312 63.597656 138.820312 Z M 63.597656 138.820312 " fill-opacity="1" fill-rule="nonzero"/><path fill="#d85c0f" d="M 123.746094 237.34375 C 124.878906 243.847656 132.414062 247.265625 133.140625 253.910156 C 133.296875 255.332031 132.648438 259.121094 132.773438 259.574219 C 133.222656 261.195312 136.402344 260.476562 137.511719 259.929688 C 141.058594 258.183594 141.125 252.339844 142.140625 249.027344 C 142.441406 248.054688 144.285156 242.667969 145.804688 243.667969 C 147.074219 244.503906 148.113281 247.890625 148.449219 249.613281 C 149.007812 252.472656 149.425781 256.917969 148.179688 262.644531 C 149.339844 262.492188 150.910156 262.148438 152.632812 261.359375 C 155.054688 260.25 156.691406 258.753906 157.632812 257.734375 C 159.132812 256.203125 159.789062 254.773438 160.109375 253.765625 C 160.878906 251.363281 160.261719 249.78125 161.398438 247.609375 C 162.003906 246.449219 162.816406 245.679688 163.378906 245.226562 C 163.78125 246.183594 164.34375 247.6875 164.765625 249.59375 C 165.53125 253.054688 165.410156 255.914062 165.261719 258.941406 C 165.199219 260.195312 165.070312 261.964844 164.765625 264.089844 C 155.65625 267.554688 147.726562 269.210938 141.914062 270.066406 C 129.394531 271.910156 119.449219 270.964844 112.121094 270.472656 C 109.71875 270.3125 95.582031 268.828125 94.464844 267.917969 C 92.167969 263.535156 90.382812 258.753906 90.28125 253.707031 C 95.929688 257.988281 98.988281 264.40625 107.011719 265.160156 C 106.433594 263.429688 105.160156 262.289062 104.542969 260.476562 C 103.164062 256.417969 104.113281 253.738281 106.128906 250.160156 C 106.472656 249.546875 108.351562 246.25 109.050781 246.753906 C 109.929688 250.902344 108.28125 253.746094 110.355469 257.925781 C 113.128906 263.515625 121.25 263.078125 120.441406 255.179688 C 119.925781 250.160156 117.71875 245.609375 120.554688 240.484375 C 120.867188 239.921875 123.144531 236.792969 123.746094 237.34375 Z M 123.746094 237.34375 " fill-opacity="1" fill-rule="nonzero"/><path fill="#780a11" d="M 97.214844 227.933594 L 88.4375 213.621094 C 87.394531 213.542969 87.976562 213.765625 88.136719 214.332031 C 89.390625 218.75 91.5 223.441406 92.941406 227.933594 C 93.117188 228.476562 93.363281 228.417969 92.523438 228.351562 C 88.097656 228.011719 73.640625 225.070312 69.996094 223.101562 C 61.238281 218.371094 67.847656 205.527344 75.984375 211.777344 L 72.726562 215.054688 C 73.761719 215.464844 74.949219 213.996094 76.113281 213.535156 C 77.503906 212.988281 79.054688 212.832031 80.476562 212.386719 C 79.902344 211.507812 79.351562 212.335938 79.851562 210.746094 C 81.21875 206.40625 86.476562 205.828125 89.476562 208.902344 C 91.140625 210.605469 95.867188 223.101562 96.828125 226.078125 C 97.023438 226.6875 97.277344 227.273438 97.214844 227.933594 Z M 97.214844 227.933594 " fill-opacity="1" fill-rule="nonzero"/><path fill="#faead3" d="M 99.664062 232.847656 C 99.757812 233.5625 98.738281 233.234375 98.242188 233.253906 C 91.648438 233.527344 84.035156 232.550781 77.488281 231.550781 C 68.902344 230.238281 60.414062 228.171875 52.316406 225.078125 C 57.222656 233.015625 63.054688 239.144531 70.554688 244.632812 C 71.246094 245.136719 80.535156 250.894531 80.074219 251.25 C 63.070312 244.957031 46.730469 232.148438 39.257812 215.257812 C 57.007812 227.199219 78.863281 230.101562 99.664062 232.847656 Z M 99.664062 232.847656 " fill-opacity="1" fill-rule="nonzero"/><path fill="#d85c0f" d="M 204.988281 215.253906 L 203.753906 209.53125 C 202.066406 211.558594 199.597656 210.644531 198.078125 208.863281 L 201.304688 203.394531 C 200.089844 203.898438 197.296875 207.863281 196.394531 207.722656 C 194.382812 206.8125 192.660156 205.511719 190.910156 204.199219 C 188.039062 202.050781 179.386719 195.75 177.636719 193.371094 C 176.976562 192.476562 176.257812 191.355469 176.46875 190.195312 C 176.5625 189.671875 179.308594 185.816406 179.675781 185.582031 C 180.644531 184.957031 185.863281 188.121094 186.984375 188.910156 C 190.191406 191.160156 202.523438 202.300781 204.578125 205.230469 C 206.632812 208.160156 204.953125 208.996094 205.464844 211.277344 C 205.824219 212.886719 208.015625 213.53125 204.988281 215.253906 Z M 204.988281 215.253906 " fill-opacity="1" fill-rule="nonzero"/><path fill="#780a11" d="M 53.953125 205.03125 C 60.859375 201.984375 62.101562 211.113281 57.007812 214.84375 C 48.382812 221.160156 37.40625 210.328125 44.746094 202.96875 C 46.824219 200.882812 47.785156 200.753906 49.625 203.023438 C 50.136719 203.65625 51.761719 207.402344 52.261719 205.589844 C 52.714844 203.949219 51.5 199.820312 49.855469 199.105469 C 49.394531 198.90625 46.101562 198.757812 48.003906 197.253906 C 51.691406 194.335938 54.699219 202.175781 53.953125 205.03125 Z M 53.953125 205.03125 " fill-opacity="1" fill-rule="nonzero"/><path fill="#faead3" d="M 229.472656 168.621094 L 225.777344 165.164062 C 222.660156 163.734375 224.257812 164.105469 225.949219 163.257812 C 241.695312 155.359375 256.265625 145.167969 271.652344 136.648438 C 274.171875 135.253906 278.480469 132.523438 281.019531 131.71875 C 285.414062 130.328125 286.894531 134.691406 284.292969 135.4375 C 283.09375 135.78125 279.609375 133.480469 277.691406 135.332031 L 229.050781 165.980469 C 228.464844 166.636719 229.253906 167.800781 229.472656 168.621094 Z M 229.472656 168.621094 " fill-opacity="1" fill-rule="nonzero"/><path fill="#faead3" d="M 122.117188 229.160156 C 121.394531 229.945312 117.835938 225.378906 117.464844 224.625 C 113.421875 216.445312 120.9375 213.40625 122.746094 206.683594 C 123.941406 202.242188 122.671875 198.050781 122.726562 193.578125 L 127.304688 207.398438 C 127.992188 209.800781 128.25 212.511719 127.238281 214.863281 C 126.453125 216.683594 124.9375 217.570312 123.980469 218.964844 C 122.058594 221.761719 121.242188 225.878906 122.117188 229.160156 Z M 122.117188 229.160156 " fill-opacity="1" fill-rule="nonzero"/><path fill="#780a11" d="M 185.386719 215.253906 C 185.195312 215.433594 182.996094 215.082031 182.941406 216.070312 C 184.5625 215.589844 188.71875 216.878906 189.703125 216.109375 C 190.113281 215.789062 190.273438 214.898438 190.695312 214.644531 C 193.371094 213.039062 194.988281 218.160156 193.085938 220.71875 C 191.328125 223.074219 182.730469 224.417969 179.714844 224.621094 C 178.765625 221.628906 177.933594 211.210938 183.464844 212.878906 C 183.996094 213.039062 185.804688 214.859375 185.386719 215.253906 Z M 185.386719 215.253906 " fill-opacity="1" fill-rule="nonzero"/><path fill="#faead3" d="M 121.300781 192.757812 L 122.121094 197.023438 C 122.027344 199.558594 122.328125 202.117188 121.933594 204.640625 C 120.792969 211.914062 112.355469 214.703125 114.75 223.253906 C 115.363281 225.441406 117.074219 227.160156 118.035156 229.160156 C 116.863281 228.925781 113.609375 229.539062 112.8125 229.078125 C 111.386719 228.246094 110.179688 221.707031 110.261719 219.941406 C 110.640625 211.792969 121.300781 206.992188 121.300781 199.507812 Z M 121.300781 192.757812 " fill-opacity="1" fill-rule="nonzero"/><path fill="#273418" d="M 102.109375 188.257812 C 102.414062 188.59375 103.476562 193.550781 103.558594 194.382812 C 103.648438 195.351562 103.21875 196.277344 103.34375 197.253906 C 104.074219 197.109375 103.875 195.800781 104.253906 195.101562 C 104.800781 194.09375 106.40625 191.660156 107.828125 192.140625 C 103.484375 195.898438 103.746094 200.75 105.351562 205.808594 C 103.292969 206.351562 101.886719 208.105469 100.078125 209.121094 C 99.996094 205.054688 99.242188 200.664062 95.789062 198.078125 C 94.402344 197.039062 92.625 196.851562 91.503906 195.625 L 93.949219 195.617188 C 94.050781 195.527344 92.429688 193.828125 93.335938 193.167969 L 98.4375 197.257812 C 98.082031 194.574219 96.585938 192.085938 95.898438 189.375 C 95.761719 188.832031 95.125 188.589844 96.191406 188.671875 L 99.585938 193.042969 L 101.703125 197.664062 C 101.8125 194.726562 101.351562 191.792969 101.289062 188.878906 C 101.273438 188.207031 101.699219 187.804688 102.109375 188.257812 Z M 102.109375 188.257812 " fill-opacity="1" fill-rule="nonzero"/><path fill="#faead3" d="M 120.074219 192.761719 C 120.058594 195.132812 120.097656 197.96875 119.628906 200.285156 C 117.980469 208.441406 106.742188 212.660156 107.453125 221.542969 C 107.648438 223.980469 109.214844 226.976562 110.28125 229.160156 C 108.003906 229.898438 106.59375 227.582031 105.714844 225.761719 C 102.621094 219.332031 105.800781 213.175781 110.261719 208.488281 C 116.363281 202.074219 117.804688 203.277344 119.269531 193.371094 C 119.375 192.660156 119.054688 192.683594 120.074219 192.761719 Z M 120.074219 192.761719 " fill-opacity="1" fill-rule="nonzero"/><path fill="#faead3" d="M 127.832031 202.167969 C 129.371094 205.105469 133.242188 210.984375 133.546875 213.820312 C 134.285156 220.660156 129.953125 222.574219 126.199219 226.914062 C 125.523438 227.691406 125.421875 229.261719 124.160156 229.160156 C 124.433594 227.546875 123.683594 226.007812 123.714844 224.460938 C 123.804688 219.96875 129.636719 217.316406 129.890625 212.582031 C 130.046875 209.675781 126.761719 202.359375 125.792969 198.894531 C 126.078125 198.808594 126.3125 198.757812 126.367188 198.835938 C 126.960938 199.679688 127.542969 201.207031 127.832031 202.167969 Z M 127.832031 202.167969 " fill-opacity="1" fill-rule="nonzero"/><path fill="#faead3" d="M 132.730469 205.4375 C 137.570312 211.375 141.710938 217.589844 136.335938 224.796875 C 134.066406 227.839844 131.890625 229.980469 127.835938 229.160156 C 129.226562 225.933594 132.554688 223.789062 134.121094 220.535156 C 137.796875 212.894531 131.546875 208.085938 128.242188 202.167969 C 127.816406 201.867188 126.132812 198.695312 126.222656 198.5 C 126.296875 198.335938 126.441406 198.199219 126.609375 198.074219 C 126.722656 197.71875 126.859375 197.722656 127.015625 198.074219 C 128.832031 200.636719 130.734375 203.089844 132.730469 205.4375 Z M 132.730469 205.4375 " fill-opacity="1" fill-rule="nonzero"/><path fill="#faead3" d="M 127.425781 197.257812 C 133.558594 203.890625 146.859375 212.945312 143.636719 223.527344 C 142.320312 227.851562 139.835938 230.058594 135.179688 229.160156 C 138.566406 225.503906 141.351562 223.453125 140.890625 217.917969 C 140.429688 212.433594 136.398438 208.890625 133.140625 205.03125 C 130.90625 203.226562 127.4375 200.355469 127.425781 197.257812 Z M 127.425781 197.257812 " fill-opacity="1" fill-rule="nonzero"/><path fill="#273418" d="M 76.8125 205.84375 C 77.5 205.808594 77.34375 204.792969 77.851562 204.234375 C 78.703125 203.292969 81.976562 202.226562 81.292969 203.59375 C 78.929688 205.003906 77.496094 207.386719 76.605469 209.9375 C 74.6875 206.652344 70.65625 205.117188 67.011719 205.433594 C 68.6875 203.488281 72.167969 204.160156 74.355469 204.617188 C 73.769531 201.261719 71.550781 197.335938 69.058594 195 C 66.445312 192.546875 61.316406 191.109375 61.296875 187.035156 C 64.847656 186.632812 68.570312 190.378906 70.671875 192.976562 C 73.484375 196.445312 75.578125 201.542969 76.8125 205.84375 Z M 76.8125 205.84375 " fill-opacity="1" fill-rule="nonzero"/><path fill="#273418" d="M 179.957031 208.171875 C 177.28125 210.414062 171.140625 210.261719 167.984375 209.175781 C 167.453125 208.992188 166.738281 209.058594 166.613281 208.304688 C 168.390625 207.871094 170.242188 207.457031 172 206.949219 C 172.421875 206.828125 173.234375 206.851562 173.140625 206.261719 C 170.550781 205.617188 168.0625 207.09375 165.808594 207.304688 C 162.851562 207.578125 166.992188 204.183594 168.238281 203.59375 C 171.042969 202.261719 175.453125 202.121094 178.324219 203.3125 C 180.6875 204.292969 182.328125 206.183594 179.957031 208.171875 Z M 179.957031 208.171875 " fill-opacity="1" fill-rule="nonzero"/><path fill="#d85c0f" d="M 171.898438 192.777344 C 172.976562 195.503906 170.6875 196.589844 168.855469 198.074219 L 168.449219 196.851562 C 163.859375 203.929688 162.339844 212.515625 157.800781 219.722656 C 156.035156 222.527344 154.210938 225.625 150.691406 226.296875 C 153.921875 222.308594 156.984375 218.085938 159.335938 213.488281 C 161.871094 208.527344 163.234375 202.917969 166.03125 198.109375 C 166.707031 196.945312 170.257812 191.324219 171.898438 192.777344 Z M 171.898438 192.777344 " fill-opacity="1" fill-rule="nonzero"/><path fill="#273418" d="M 148.246094 196.03125 C 147.859375 192.804688 148.726562 190.082031 149.464844 187.035156 C 148.917969 187.207031 148.339844 188.699219 148.167969 189.207031 C 147.414062 191.40625 147.28125 193.292969 147.421875 195.621094 C 143.363281 190.488281 146.933594 184.722656 150.894531 180.898438 C 154.132812 186.324219 153.375 192.132812 148.246094 196.03125 Z M 148.246094 196.03125 " fill-opacity="1" fill-rule="nonzero"/><path fill="#faead3" d="M 207.429688 179.253906 L 219.164062 170.738281 C 219.761719 170.613281 223.34375 172.242188 223.34375 172.511719 L 211.617188 180.835938 Z M 207.429688 179.253906 " fill-opacity="1" fill-rule="nonzero"/><path fill="#273418" d="M 162.941406 220.160156 C 162.84375 219.574219 163.648438 219.605469 164.074219 219.46875 C 165.296875 219.078125 166.605469 218.890625 167.832031 218.523438 C 167.738281 217.792969 165.679688 218.0625 165.1875 218.125 C 163.230469 218.359375 161.664062 219.460938 159.671875 218.523438 C 162.839844 215.410156 169.425781 213.835938 173.144531 216.695312 C 171.234375 220.464844 166.671875 221.160156 162.941406 220.160156 Z M 162.941406 220.160156 " fill-opacity="1" fill-rule="nonzero"/><path fill="#faead3" d="M 171.914062 187.4375 C 167.195312 187.5625 162.179688 185.5625 160.078125 181.109375 C 163.890625 178.671875 164.886719 181.824219 167.050781 183.117188 C 168.894531 184.21875 171.863281 184.265625 171.914062 187.4375 Z M 171.914062 187.4375 " fill-opacity="1" fill-rule="nonzero"/><path fill="#273418" d="M 152.738281 219.347656 C 152.9375 217.328125 152.136719 215.472656 151.503906 213.621094 C 150.773438 213.527344 151.105469 214.542969 151.148438 215 C 151.28125 216.402344 151.785156 217.824219 151.503906 219.34375 C 150.882812 219.117188 150.398438 217.90625 150.074219 217.308594 C 148.316406 214.09375 147.636719 211.585938 148.652344 207.894531 C 152.617188 209.109375 154.695312 214.203125 153.605469 217.976562 C 153.449219 218.527344 153.453125 219.222656 152.738281 219.347656 Z M 152.738281 219.347656 " fill-opacity="1" fill-rule="nonzero"/><path fill="#dc8a1a" d="M 140.347656 195.351562 C 141.992188 197.691406 142.808594 200.046875 142.523438 202.984375 C 141.441406 202.214844 141.015625 200.90625 140.085938 199.90625 C 138.652344 198.371094 135.355469 196.433594 134.859375 194.511719 C 134.074219 191.457031 135.957031 192.535156 137.835938 191.132812 C 138.773438 191.960938 138.445312 193.386719 139.078125 194.382812 C 139.421875 194.929688 140.140625 195.054688 140.347656 195.351562 Z M 140.347656 195.351562 " fill-opacity="1" fill-rule="nonzero"/><path fill="#faead3" d="M 216.40625 202.980469 L 215.824219 199.6875 C 214.140625 194.546875 209.855469 190.742188 205.257812 188.1875 L 197.226562 184.171875 C 205.804688 186.207031 218.882812 192.058594 216.40625 202.980469 Z M 216.40625 202.980469 " fill-opacity="1" fill-rule="nonzero"/><path fill="#273418" d="M 159.257812 206.253906 L 156.609375 202.167969 L 158.445312 207.484375 C 156.085938 206.269531 153.746094 203.515625 153.753906 200.734375 C 153.765625 195.785156 157.566406 199.011719 158.867188 201.542969 C 159.734375 203.226562 159.96875 204.429688 159.257812 206.253906 Z M 159.257812 206.253906 " fill-opacity="1" fill-rule="nonzero"/><path fill="#dc8a1a" d="M 140.488281 203.796875 L 134.636719 200.871094 C 132.84375 199.359375 130.101562 197.207031 131.492188 194.582031 C 133.027344 193.480469 136.324219 199.152344 137.851562 199.695312 Z M 140.488281 203.796875 " fill-opacity="1" fill-rule="nonzero"/><path fill="#dc8a1a" d="M 131.808594 185.867188 C 135.234375 185.261719 136.550781 190.464844 132.847656 191.050781 C 129.507812 191.574219 128.410156 186.472656 131.808594 185.867188 Z M 131.808594 185.867188 " fill-opacity="1" fill-rule="nonzero"/><path fill="#d85c0f" d="M 137.921875 176.480469 C 141.742188 175.339844 143.183594 181.589844 138.273438 180.875 C 135.421875 180.457031 136.019531 177.046875 137.921875 176.480469 Z M 137.921875 176.480469 " fill-opacity="1" fill-rule="nonzero"/><path fill="#dc8a1a" d="M 54.769531 200.9375 C 54.734375 199.921875 55.660156 199.425781 55.582031 198.308594 C 55.496094 197.085938 53.65625 195.773438 54.355469 193.984375 C 60.648438 193.851562 59.046875 198.929688 54.769531 200.9375 Z M 54.769531 200.9375 " fill-opacity="1" fill-rule="nonzero"/><path fill="#2a0a17" d="M 202.824219 190.792969 C 207.53125 189.363281 206.121094 196.953125 202.121094 195.007812 C 200.195312 194.070312 201.019531 191.34375 202.824219 190.792969 Z M 202.824219 190.792969 " fill-opacity="1" fill-rule="nonzero"/><path fill="#dc8a1a" d="M 128.53125 181.429688 C 129.941406 182.59375 129.988281 185.21875 127.632812 185.425781 C 122.742188 185.863281 125.199219 178.6875 128.53125 181.429688 Z M 128.53125 181.429688 " fill-opacity="1" fill-rule="nonzero"/><path fill="#273418" d="M 108.238281 182.121094 C 106.53125 181.402344 107.082031 181.46875 105.589844 180.484375 C 103.464844 179.082031 101.527344 179.90625 99.261719 179.875 C 100.753906 178.046875 102.21875 177.140625 104.683594 177.710938 C 107.3125 178.316406 107.96875 182.011719 108.238281 182.121094 Z M 108.238281 182.121094 " fill-opacity="1" fill-rule="nonzero"/><path fill="#dc8a1a" d="M 71.90625 190.304688 C 70.789062 187.292969 74.550781 184.585938 76.351562 187.285156 C 78.144531 189.96875 73.929688 190.773438 71.90625 190.304688 Z M 71.90625 190.304688 " fill-opacity="1" fill-rule="nonzero"/><path fill="#dc8a1a" d="M 55.992188 202.574219 C 55.964844 199.894531 62.421875 198.15625 62.917969 200.351562 C 63.621094 203.492188 57.261719 201.945312 55.992188 202.574219 Z M 55.992188 202.574219 " fill-opacity="1" fill-rule="nonzero"/><path fill="#dc8a1a" d="M 121.589844 176.066406 C 125.28125 174.949219 126.496094 180.785156 122.34375 180.078125 C 120.339844 179.738281 119.667969 176.648438 121.589844 176.066406 Z M 121.589844 176.066406 " fill-opacity="1" fill-rule="nonzero"/><path fill="#273418" d="M 162.398438 191.660156 C 163.550781 192.949219 164.132812 196.042969 163.339844 197.664062 C 162.101562 197.394531 162.726562 194.226562 162.527344 193.988281 L 161.71875 194.183594 L 161.515625 195.617188 C 159.800781 194.265625 159.214844 192.816406 160.085938 190.714844 C 160.488281 190.429688 162.054688 191.269531 162.398438 191.660156 Z M 162.398438 191.660156 " fill-opacity="1" fill-rule="nonzero"/><path fill="#dc8a1a" d="M 118.707031 180.109375 C 119.996094 179.894531 124.421875 185.683594 119.144531 184.492188 C 116.546875 183.90625 116.921875 180.410156 118.707031 180.109375 Z M 118.707031 180.109375 " fill-opacity="1" fill-rule="nonzero"/><path fill="#273418" d="M 95.582031 179.671875 C 95.386719 180.351562 94.203125 180.113281 93.390625 180.539062 C 91.578125 181.480469 91.0625 184.496094 88.644531 184.574219 C 89.386719 180.484375 91.476562 179.175781 95.582031 179.671875 Z M 95.582031 179.671875 " fill-opacity="1" fill-rule="nonzero"/><path fill="#dc8a1a" d="M 127.226562 189.898438 C 127.976562 189.738281 131.539062 193.484375 129.628906 193.964844 C 126.820312 194.675781 125.601562 190.242188 127.226562 189.898438 Z M 127.226562 189.898438 " fill-opacity="1" fill-rule="nonzero"/><path fill="#dc8a1a" d="M 123.546875 185.402344 C 124.039062 186.085938 125.519531 186.992188 125.726562 187.726562 C 126.722656 191.261719 119.488281 188.605469 123.546875 185.402344 Z M 123.546875 185.402344 " fill-opacity="1" fill-rule="nonzero"/><path fill="#273418" d="M 84.15625 192.761719 C 83.582031 193.667969 83.367188 194.316406 83.308594 195.40625 C 83.21875 197.105469 83.882812 197.84375 83.953125 199.300781 C 81.117188 197.933594 80.914062 193.691406 84.15625 192.761719 Z M 84.15625 192.761719 " fill-opacity="1" fill-rule="nonzero"/><path fill="#2a0a17" d="M 188.554688 212.089844 C 189.519531 213.042969 189.003906 215.015625 186.90625 214.351562 C 184.402344 213.554688 186.757812 210.320312 188.554688 212.089844 Z M 188.554688 212.089844 " fill-opacity="1" fill-rule="nonzero"/><path fill="#273418" d="M 87.417969 185.398438 L 85.433594 186.882812 L 83.75 190.300781 C 83.210938 187.707031 84.769531 185.539062 87.417969 185.398438 Z M 87.417969 185.398438 " fill-opacity="1" fill-rule="nonzero"/><path fill="#273418" d="M 108.238281 182.121094 C 109.484375 182.636719 112.261719 181.519531 111.910156 184.984375 C 111.121094 184.566406 110.960938 183.527344 110.089844 182.925781 C 109.71875 182.671875 108.78125 182.351562 108.238281 182.121094 Z M 108.238281 182.121094 " fill-opacity="1" fill-rule="nonzero"/><path fill="#2a0a17" d="M 166.191406 81.304688 C 153.9375 66.808594 129.484375 66.488281 125.164062 44.695312 C 123.269531 35.136719 126.011719 27.75 133.140625 21.367188 C 115.5625 29.011719 109.523438 49.148438 120.558594 65.261719 C 128.484375 76.832031 142.808594 81.890625 151.71875 92.535156 C 156.15625 97.835938 159.164062 105.695312 153.964844 111.570312 C 149.316406 116.820312 140.683594 116.242188 140.082031 108.492188 C 145.183594 116.3125 154.882812 108.089844 149.269531 101.121094 C 144.5 95.199219 135.578125 100.757812 135.554688 107.878906 C 135.515625 119.582031 150.191406 122.539062 159.132812 118.792969 C 174.972656 112.15625 176.671875 93.703125 166.191406 81.304688 Z M 163.351562 110.949219 C 167.957031 95.511719 157.824219 86.109375 146.167969 78.460938 C 139.125 73.839844 130.847656 70.542969 125.382812 63.910156 L 131.089844 67.390625 C 141.117188 72.953125 153.753906 76.308594 161.292969 85.394531 C 167.324219 92.660156 170.355469 103.292969 163.351562 110.949219 Z M 163.351562 110.949219 " fill-opacity="1" fill-rule="nonzero"/><path fill="#273418" d="M 105.175781 155.945312 C 101.386719 147.910156 90.105469 150.035156 85.378906 142.855469 L 85.378906 151.238281 C 85.378906 156.621094 92.289062 163.949219 97.875 164.082031 L 107.429688 164.324219 C 106.765625 161.617188 106.371094 158.480469 105.175781 155.945312 Z M 102.519531 159.625 L 96.808594 155.949219 C 97.75 155.703125 103.378906 158.699219 102.519531 159.625 Z M 102.519531 159.625 " fill-opacity="1" fill-rule="nonzero"/><path fill="#273418" d="M 70.15625 151.359375 C 65.152344 149.554688 61.3125 151.835938 56.605469 151.4375 C 55.011719 151.300781 53.789062 150.609375 52.316406 150.21875 C 54.808594 155.304688 59.480469 161.539062 65.566406 162.097656 C 69.929688 162.496094 74.785156 161.136719 79.257812 161.664062 C 76.300781 158.238281 74.746094 153.015625 70.15625 151.359375 Z M 65.789062 155.949219 C 68.75 155.777344 72.613281 156.097656 74.359375 158.800781 Z M 65.789062 155.949219 " fill-opacity="1" fill-rule="nonzero"/><path fill="#273418" d="M 181.417969 149.714844 C 177.550781 151.152344 174.671875 159.835938 171.101562 162.484375 C 176.539062 160.785156 185.003906 162.863281 189.050781 158.589844 C 191.710938 155.777344 193.789062 151.535156 196.410156 148.585938 C 191.96875 149.578125 185.546875 148.179688 181.417969 149.714844 Z M 178.042969 157.984375 C 179.800781 155.707031 182.859375 154.011719 185.792969 153.902344 Z M 178.042969 157.984375 " fill-opacity="1" fill-rule="nonzero"/><path fill="#171717" d="M 181.3125 195.621094 C 182.128906 193.773438 183.789062 191.910156 185.382812 190.714844 C 185.027344 192.789062 182.796875 194.292969 181.3125 195.621094 Z M 181.3125 195.621094 " fill-opacity="1" fill-rule="nonzero"/><path fill="#1a1a1a" d="M 192.332031 202.574219 C 192.722656 200.910156 194.253906 199.445312 195.589844 198.484375 C 195.394531 200.234375 193.609375 201.550781 192.332031 202.574219 Z M 192.332031 202.574219 " fill-opacity="1" fill-rule="nonzero"/><path fill="#171717" d="M 188.238281 198.480469 C 188.191406 198.523438 187.378906 198.632812 187.433594 198.285156 C 188.199219 196.976562 188.871094 195.550781 190.28125 194.804688 C 190.3125 195.414062 188.449219 198.300781 188.238281 198.480469 Z M 188.238281 198.480469 " fill-opacity="1" fill-rule="nonzero"/><path fill="#780a11" d="M 107.351562 96.476562 C 107.351562 96.941406 107.261719 97.390625 107.082031 97.820312 C 106.90625 98.25 106.652344 98.628906 106.324219 98.957031 C 105.996094 99.289062 105.617188 99.539062 105.1875 99.71875 C 104.761719 99.898438 104.3125 99.984375 103.847656 99.984375 C 103.386719 99.984375 102.9375 99.898438 102.507812 99.71875 C 102.082031 99.539062 101.703125 99.289062 101.375 98.957031 C 101.046875 98.628906 100.792969 98.25 100.613281 97.820312 C 100.4375 97.390625 100.347656 96.941406 100.347656 96.476562 C 100.347656 96.011719 100.4375 95.566406 100.613281 95.136719 C 100.792969 94.707031 101.046875 94.324219 101.375 93.996094 C 101.703125 93.667969 102.082031 93.414062 102.507812 93.238281 C 102.9375 93.058594 103.386719 92.96875 103.847656 92.96875 C 104.3125 92.96875 104.761719 93.058594 105.1875 93.238281 C 105.617188 93.414062 105.996094 93.667969 106.324219 93.996094 C 106.652344 94.324219 106.90625 94.707031 107.082031 95.136719 C 107.261719 95.566406 107.351562 96.011719 107.351562 96.476562 Z M 107.351562 96.476562 " fill-opacity="1" fill-rule="nonzero"/><g clip-path="url(#9a8a6e35c5)"><path fill="#273418" d="M 365.859375 154.882812 L 362.222656 176.148438 L 354.226562 229.589844 L 342.773438 253.582031 L 315.144531 253.949219 L 310.417969 223.773438 L 300.785156 176.148438 L 298.058594 154.882812 L 326.777344 154.882812 L 327.6875 173.058594 L 330.597656 205.960938 C 330.777344 209.414062 332.050781 212.140625 332.957031 212.140625 C 333.503906 212.140625 334.050781 211.050781 334.050781 208.140625 L 335.320312 173.058594 L 337.683594 154.882812 Z M 365.859375 154.882812 " fill-opacity="1" fill-rule="nonzero"/></g><path fill="#273418" d="M 403.199219 211.296875 L 431.554688 212.933594 L 431.554688 229.835938 C 431.554688 229.835938 424.648438 253.832031 401.199219 253.832031 C 388.113281 253.832031 375.390625 253.105469 363.574219 247.105469 L 361.027344 209.480469 C 361.027344 209.480469 365.390625 195.480469 365.390625 178.941406 C 365.390625 162.582031 392.113281 151.675781 402.292969 151.675781 C 414.652344 151.675781 428.285156 163.125 431.554688 174.761719 C 431.554688 185.300781 431.554688 195.84375 431.375 206.386719 L 389.75 208.386719 C 389.386719 212.75 389.203125 217.113281 389.023438 220.929688 C 388.839844 225.109375 389.566406 231.835938 395.203125 231.835938 C 397.382812 231.65625 399.566406 230.5625 401.5625 229.65625 C 403.925781 228.199219 403.382812 220.203125 403.199219 211.296875 Z M 390.65625 198.207031 L 403.382812 197.117188 C 403.382812 193.300781 403.5625 189.664062 403.199219 186.9375 C 402.472656 183.667969 401.019531 180.941406 398.472656 179.667969 C 394.292969 177.304688 391.929688 186.757812 390.65625 198.207031 Z M 390.65625 198.207031 " fill-opacity="1" fill-rule="nonzero"/><path fill="#273418" d="M 506.015625 151.972656 L 505.652344 176.695312 L 502.5625 261.21875 L 495.472656 277.214844 L 484.75 284.304688 L 449.121094 284.847656 L 451.304688 259.765625 L 465.480469 262.308594 C 470.933594 263.945312 474.570312 261.582031 476.207031 258.492188 L 476.386719 253.039062 C 473.660156 253.21875 471.117188 253.21875 468.570312 253.039062 C 454.210938 252.128906 438.941406 245.402344 434.578125 230.316406 L 437.671875 187.054688 L 436.941406 169.242188 C 436.941406 169.242188 447.667969 149.246094 466.753906 150.519531 C 470.207031 150.882812 475.84375 152.519531 481.476562 155.425781 L 482.203125 152.15625 Z M 468.570312 178.695312 C 459.847656 182.691406 461.664062 202.871094 461.117188 210.6875 L 463.84375 227.226562 C 464.207031 229.589844 465.84375 230.863281 467.84375 231.042969 C 471.660156 231.226562 474.933594 228.863281 475.117188 220.683594 C 475.660156 203.414062 475.84375 175.421875 468.570312 178.695312 Z M 468.570312 178.695312 " fill-opacity="1" fill-rule="nonzero"/><path fill="#273418" d="M 579.628906 183.78125 C 579.628906 206.324219 578.71875 229.226562 578.175781 252.128906 L 554.179688 254.128906 L 518.371094 248.496094 L 509.285156 229.589844 L 510.011719 207.050781 L 519.28125 196.324219 L 533.824219 192.328125 C 540.183594 191.964844 547.09375 191.597656 553.453125 191.597656 L 553.816406 184.691406 C 554.179688 175.785156 552.363281 170.695312 545.273438 170.695312 C 543.457031 170.695312 541.457031 171.058594 539.09375 171.605469 C 535.820312 172.511719 535.277344 177.964844 535.457031 188.328125 L 510.375 188.328125 L 510.375 174.332031 C 510.375 174.332031 513.28125 152.335938 544.546875 152.335938 C 557.089844 152.335938 579.628906 163.605469 579.628906 183.78125 Z M 552.910156 213.410156 C 552.726562 207.957031 550 205.777344 546.910156 205.777344 C 539.277344 205.777344 537.457031 212.320312 537.457031 224.320312 C 536.914062 228.863281 540.546875 232.679688 544.910156 232.679688 C 548.910156 232.679688 552.363281 229.589844 552.546875 225.589844 Z M 552.910156 213.410156 " fill-opacity="1" fill-rule="nonzero"/><path fill="#273418" d="M 623.472656 253.3125 L 625.65625 212.230469 L 623.292969 195.144531 C 622.019531 187.691406 622.566406 173.332031 613.476562 173.332031 C 611.476562 173.332031 610.023438 175.511719 610.203125 181.328125 L 609.296875 253.3125 L 583.300781 253.3125 L 584.757812 198.597656 L 581.121094 158.246094 C 598.570312 158.246094 612.023438 158.246094 629.289062 158.972656 L 642.742188 168.785156 L 653.101562 189.144531 C 653.285156 190.78125 653.464844 192.417969 653.648438 194.234375 L 656.375 253.3125 Z M 623.472656 253.3125 " fill-opacity="1" fill-rule="nonzero"/><path fill="#273418" d="M 728.503906 183.304688 C 728.503906 205.84375 727.59375 228.746094 727.050781 251.648438 L 703.054688 253.648438 L 667.246094 248.015625 L 658.15625 229.109375 L 658.882812 206.570312 L 668.15625 195.84375 L 682.695312 191.847656 C 689.058594 191.484375 695.964844 191.121094 702.328125 191.121094 L 702.691406 184.210938 C 703.054688 175.304688 701.238281 170.214844 694.148438 170.214844 C 692.332031 170.214844 690.332031 170.578125 687.96875 171.125 C 684.695312 172.035156 684.152344 177.488281 684.332031 187.847656 L 659.25 187.847656 L 659.25 173.851562 C 659.25 173.851562 662.15625 151.855469 693.421875 151.855469 C 705.964844 151.855469 728.503906 163.125 728.503906 183.304688 Z M 701.78125 212.933594 C 701.601562 207.480469 698.875 205.296875 695.785156 205.296875 C 688.148438 205.296875 686.332031 211.839844 686.332031 223.839844 C 685.789062 228.382812 689.421875 232.199219 693.785156 232.199219 C 697.785156 232.199219 701.238281 229.109375 701.417969 225.109375 Z M 701.78125 212.933594 " fill-opacity="1" fill-rule="nonzero"/><g clip-path="url(#c4ad72cd1c)"><path fill="#273418" d="M 368.515625 40.933594 L 364.738281 63.035156 L 356.425781 118.566406 L 344.527344 143.5 L 315.8125 143.878906 L 310.902344 112.523438 L 300.890625 63.035156 L 298.058594 40.933594 L 327.902344 40.933594 L 328.847656 59.820312 L 331.871094 94.011719 C 332.058594 97.601562 333.382812 100.433594 334.324219 100.433594 C 334.890625 100.433594 335.457031 99.300781 335.457031 96.277344 L 336.78125 59.820312 L 339.238281 40.933594 Z M 368.515625 40.933594 " fill-opacity="1" fill-rule="nonzero"/></g><path fill="#273418" d="M 407.179688 98.734375 L 436.648438 100.433594 L 436.648438 118 C 436.648438 118 429.46875 142.933594 405.101562 142.933594 C 391.503906 142.933594 378.28125 142.179688 366.003906 135.945312 L 363.359375 96.84375 C 363.359375 96.84375 367.890625 82.300781 367.890625 65.113281 C 367.890625 48.109375 395.65625 36.777344 406.234375 36.777344 C 419.082031 36.777344 433.246094 48.675781 436.648438 60.765625 C 436.648438 71.722656 436.648438 82.679688 436.457031 93.632812 L 393.203125 95.710938 C 392.824219 100.246094 392.636719 104.777344 392.445312 108.746094 C 392.257812 113.089844 393.011719 120.078125 398.871094 120.078125 C 401.136719 119.890625 403.402344 118.757812 405.480469 117.8125 C 407.9375 116.300781 407.371094 107.988281 407.179688 98.734375 Z M 394.148438 85.132812 L 407.371094 84 C 407.371094 80.035156 407.558594 76.257812 407.179688 73.421875 C 406.425781 70.023438 404.914062 67.1875 402.269531 65.867188 C 397.925781 63.410156 395.46875 73.234375 394.148438 85.132812 Z M 394.148438 85.132812 " fill-opacity="1" fill-rule="nonzero"/><path fill="#273418" d="M 480.671875 83.621094 C 480.671875 74.933594 482.183594 60.578125 472.550781 60.578125 C 470.472656 60.578125 468.960938 62.84375 469.152344 68.890625 L 468.207031 143.691406 L 441.195312 143.691406 L 442.707031 86.832031 L 438.929688 44.898438 C 457.0625 44.898438 476.894531 44.898438 495.027344 45.65625 L 508.816406 55.855469 L 512.027344 73.421875 L 512.40625 82.679688 Z M 480.671875 83.621094 " fill-opacity="1" fill-rule="nonzero"/><path fill="#273418" d="M 579.460938 120.078125 C 579.460938 130.65625 571.527344 143.125 560.949219 143.125 L 540.550781 143.125 C 520.90625 143.125 514.105469 122.910156 514.105469 122.910156 L 514.105469 108.933594 L 540.738281 107.613281 C 540.738281 114.410156 535.449219 123.289062 546.21875 124.800781 L 548.671875 124.800781 C 551.507812 124.800781 553.773438 126.5 554.148438 116.867188 C 554.339844 113.84375 558.117188 107.800781 553.394531 105.34375 C 548.105469 102.511719 529.785156 90.421875 525.4375 87.210938 C 516.9375 80.976562 514.105469 76.066406 514.105469 65.867188 C 514.105469 59.253906 517.882812 56.234375 519.773438 52.457031 C 523.171875 45.277344 526.761719 40.746094 533.5625 40.746094 L 554.148438 40.746094 C 573.605469 40.746094 579.460938 60.957031 579.460938 60.957031 L 579.460938 74.933594 L 553.773438 76.257812 C 553.773438 71.15625 557.550781 58.878906 547.726562 59.066406 C 545.082031 59.066406 539.792969 57.554688 539.417969 67 C 539.417969 68.324219 540.738281 71.722656 543.382812 73.800781 C 553.207031 81.167969 558.496094 81.167969 568.507812 86.457031 C 580.972656 92.878906 579.460938 105.910156 579.460938 120.078125 Z M 579.460938 120.078125 " fill-opacity="1" fill-rule="nonzero"/><g clip-path="url(#e516fa454e)"><path fill="#273418" d="M 607.175781 35.171875 L 598.085938 35.171875 C 597.386719 31.394531 597.152344 24.972656 600.183594 20.816406 C 602.980469 17.039062 608.578125 15.148438 613.707031 15.148438 C 622.097656 15.148438 627.925781 21.761719 631.890625 21.761719 C 635.15625 21.761719 633.054688 17.226562 633.289062 15.148438 L 645.878906 15.148438 C 646.8125 18.738281 643.78125 22.894531 642.148438 27.617188 C 640.75 32.527344 635.621094 36.496094 630.257812 36.496094 C 624.894531 36.496094 620 33.851562 616.035156 31.773438 C 613.707031 30.640625 611.839844 29.695312 610.441406 29.695312 C 607.644531 29.695312 607.175781 33.472656 607.175781 35.359375 Z M 607.175781 35.171875 " fill-opacity="1" fill-rule="nonzero"/></g><g clip-path="url(#002550318b)"><path fill="#273418" d="M 732.007812 99.625 L 730.6875 108.125 L 726.71875 138.160156 C 718.21875 141.9375 705.5625 143.828125 695.363281 143.070312 C 680.441406 142.125 664.574219 135.136719 660.039062 119.460938 L 663.253906 74.503906 L 662.496094 55.992188 C 662.496094 55.992188 673.640625 35.214844 693.472656 36.535156 C 703.863281 37.292969 730.875 50.515625 729.550781 67.703125 C 728.417969 84.703125 732.007812 99.625 732.007812 99.625 Z M 695.363281 65.816406 C 686.296875 69.96875 688.183594 90.9375 687.617188 99.058594 L 690.453125 116.25 C 690.828125 118.703125 692.53125 120.027344 694.609375 120.214844 C 698.574219 120.40625 701.972656 117.949219 702.164062 109.449219 C 702.730469 91.503906 702.917969 62.414062 695.363281 65.816406 Z M 695.363281 65.816406 " fill-opacity="1" fill-rule="nonzero"/></g><path fill="#273418" d="M 656.148438 141.988281 C 656.714844 118.191406 657.660156 94.390625 657.660156 70.96875 C 657.660156 50 634.238281 38.289062 621.203125 38.289062 C 588.714844 38.289062 585.691406 61.144531 585.691406 61.144531 L 585.691406 75.6875 L 611.761719 75.6875 C 611.570312 64.921875 612.136719 59.253906 615.539062 58.3125 C 618.183594 57.554688 620.257812 57.367188 622.148438 57.367188 C 628.570312 57.367188 630.648438 61.523438 631.027344 70.398438 C 631.214844 72.855469 630.648438 76.257812 630.460938 79.089844 L 610.058594 79.84375 L 594.949219 84 L 585.316406 95.144531 L 584.558594 118.566406 L 594.003906 138.210938 L 631.214844 144.066406 Z M 620.257812 121.589844 C 616.105469 120.835938 613.460938 117.054688 613.835938 113.089844 C 613.835938 100.621094 615.726562 93.824219 623.660156 93.824219 C 626.871094 93.824219 629.703125 96.089844 629.894531 101.757812 L 629.515625 114.410156 C 629.328125 119.132812 624.792969 122.535156 620.257812 121.589844 Z M 620.257812 121.589844 " fill-opacity="1" fill-rule="nonzero"/></g></g></svg>